/* XPM */
static char *_21d009612264123c2e5543f5361fe1d3HF6YdzuHgsNb4Nh[] = {
/* columns rows colors chars-per-pixel */
"64 64 256 2 ",
"   c #0E0200",
".  c #08080A",
"X  c #040202",
"o  c #140300",
"O  c #110E0A",
"+  c #1B0800",
"@  c #080812",
"#  c #0B0B18",
"$  c #110E14",
"%  c #10101B",
"&  c #181518",
"*  c #101215",
"=  c #210800",
"-  c #290A00",
";  c #321000",
":  c #2C1509",
">  c #362916",
",  c #352813",
"<  c #111122",
"1  c #161628",
"2  c #19192B",
"3  c #181925",
"4  c #1A1A32",
"5  c #1E1E39",
"6  c #1C2534",
"7  c #232428",
"8  c #25263A",
"9  c #35302C",
"0  c #231D22",
"q  c #543300",
"w  c #5A3A00",
"e  c #473317",
"r  c #4D330D",
"t  c #50392B",
"y  c #461B00",
"u  c #5B4310",
"i  c #644404",
"p  c #694909",
"a  c #6D5500",
"s  c #6E5B00",
"d  c #655100",
"f  c #745400",
"g  c #735A00",
"h  c #7A5B03",
"j  c #664A18",
"k  c #674B17",
"l  c #6B5119",
"z  c #77581C",
"x  c #724B00",
"c  c #6E6100",
"v  c #766503",
"b  c #7E611E",
"n  c #5C473A",
"m  c #4F412D",
"M  c #775926",
"N  c #695130",
"B  c #79613C",
"V  c #242443",
"C  c #292C48",
"Z  c #35374A",
"A  c #373855",
"S  c #2C354C",
"D  c #3A4658",
"F  c #36414D",
"G  c #314E73",
"H  c #464A57",
"J  c #55565A",
"K  c #494C4D",
"L  c #67574C",
"P  c #756858",
"I  c #73614E",
"U  c #494966",
"Y  c #47566A",
"T  c #555867",
"R  c #585A76",
"E  c #42587C",
"W  c #576475",
"Q  c #63656B",
"!  c #646977",
"~  c #76737A",
"^  c #75726E",
"/  c #8D5E0A",
"(  c #8C650C",
")  c #A36B05",
"_  c #AC6C01",
"`  c #A56D09",
"'  c #B26F00",
"]  c #AC7500",
"[  c #AD7A00",
"{  c #A87509",
"}  c #B37300",
"|  c #B27B01",
" . c #BC7C00",
".. c #B87602",
"X. c #AC7412",
"o. c #AF7913",
"O. c #876625",
"+. c #957128",
"@. c #A77C2A",
"#. c #805D2A",
"$. c #C07E02",
"%. c #897866",
"&. c #B98302",
"*. c #B28901",
"=. c #B18A34",
"-. c #9D802F",
";. c #C38401",
":. c #C78B03",
">. c #CA9205",
",. c #D39500",
"<. c #D29B01",
"1. c #D69B08",
"2. c #D99B06",
"3. c #DA9D14",
"4. c #C7911B",
"5. c #D4A300",
"6. c #DEA400",
"7. c #D5AA00",
"8. c #DCAB00",
"9. c #DCA10D",
"0. c #D5B200",
"q. c #DCB400",
"w. c #D7BC01",
"e. c #DBA117",
"r. c #E1B300",
"t. c #E4B902",
"y. c #E2A605",
"u. c #C69429",
"i. c #C69635",
"p. c #C18B23",
"a. c #D7A53B",
"s. c #E1AB3F",
"d. c #DDC807",
"f. c #DFD507",
"g. c #E3CD07",
"h. c #BC9143",
"j. c #878379",
"k. c #B89B7D",
"l. c #C39644",
"z. c #D5A742",
"x. c #D5AC56",
"c. c #DCB665",
"v. c #E0BB6B",
"b. c #E3B344",
"n. c #EED053",
"m. c #2C548A",
"M. c #2B5387",
"N. c #31598A",
"B. c #395685",
"V. c #335C92",
"C. c #254F85",
"Z. c #396196",
"A. c #3A6299",
"S. c #376194",
"D. c #3C63A0",
"F. c #566B87",
"G. c #44689A",
"H. c #526E8D",
"J. c #676C84",
"K. c #73788F",
"L. c #436AA2",
"P. c #476DA6",
"I. c #4A71AB",
"U. c #4A72A6",
"Y. c #5478AA",
"T. c #4D75B2",
"R. c #567CB5",
"E. c #617298",
"W. c #788696",
"Q. c #748390",
"!. c #5D83BA",
"~. c #5D81AC",
"^. c #7893AD",
"/. c #6789B9",
"(. c #7997B6",
"). c #718CAE",
"_. c #5D8BCE",
"`. c #648BC8",
"'. c #7898C7",
"]. c #6492D4",
"[. c #6A96D7",
"{. c #749BD6",
"}. c #668ECD",
"|. c #7AA3DA",
" X c #7FA0C7",
".X c #79A5E3",
"XX c #85868B",
"oX c #969A9B",
"OX c #888A95",
"+X c #8789A5",
"@X c #979CA7",
"#X c #829BB8",
"$X c #969AB6",
"%X c #8898AA",
"&X c #87A2BA",
"*X c #96A5B1",
"=X c #A4AEB5",
"-X c #B5B7BA",
";X c #A7AEB0",
":X c #A29D93",
">X c #CFAD89",
",X c #8A9DC2",
"<X c #8DADCB",
"1X c #85A5C7",
"2X c #94ACCA",
"3X c #93B2CD",
"4X c #9AB4C9",
"5X c #87A9D9",
"6X c #8FB1D9",
"7X c #95B5D5",
"8X c #9DBCDB",
"9X c #98B6D8",
"0X c #92AED7",
"qX c #A7B9C7",
"wX c #A1BDDA",
"eX c #B5B7C4",
"rX c #86AEE5",
"tX c #8AB3E7",
"yX c #98BAE4",
"uX c #8EB3E8",
"iX c #A0BFE3",
"pX c #A4C2DE",
"aX c #AAC5D8",
"sX c #B4CAD7",
"dX c #B6C7CF",
"fX c #9CC2ED",
"gX c #A6C4E4",
"hX c #ADCAE5",
"jX c #AAC8E9",
"kX c #B3CCE8",
"lX c #B9D5E9",
"zX c #A7CAF3",
"xX c #B8D6F4",
"cX c #B0D0F2",
"vX c #BFE0F0",
"bX c #D0D1D4",
"nX c #C2DAEC",
"mX c #C5DAE8",
"MX c #C4DDF3",
"NX c #C6DBF1",
"BX c #D7DCE8",
"VX c #DAE7EA",
"CX c #CBE4F3",
"ZX c #C8E5F6",
"AX c #D5EAF6",
"SX c #DBF2F6",
"DX c #C9E2ED",
"FX c #E6E8E9",
"GX c #E3F6F8",
"HX c #ECF8F8",
"JX c #E9F5F6",
"KX c #F4F8F8",
"LX c #F4F6F7",
"PX c #E8EFF3",
"IX c #EDE3D0",
"UX c #D1C5BD",
/* pixels */
"+ r d c h v h h c c s s s s s s s s s s s a a a s a a a d a a a a s d s s a d a a a a f a s a a a s s s d c c d c s h f x q + X ",
"q { 7.w.7.0.0.w.w.w.w.0.0.0.0.0.0.0.0.7.7.7.7.7.7.7.7.7.7.7.7.7.7.7.7.7.7.7.5.5.5.<.<.5.5.7.5.<.5.7.7.0.w.0.w.0.0.0.7.<.>.] q X ",
"d 5.>.*.{ [ [ *.*.*.*.*.[ *.[ | | | [ *.[ | | | | | [ [ { *.{ [ [ [ [ { [ [ [ [ [ [ } _ [ ] ] ) [ [ [ ) { *.[ ] ) ] ) ) ..,.x o ",
"x <.*.) ` ` X.&.o.o.o.{ { { o.{ o.{ o.[ { o.{ X.{ ` X.` ` { { { ` ` ) ` ` ` ` ` ` ) ` ) ) ) ) ) ) ) ) ) ) ) ) ) / / / ) :.2.h + ",
"i >.' o.#.P P P P P P P P P P P P P P P I P P P P P P L P L L L L L L L L L n L L n n n n n n n n n K n n n n n t L n X.6.r./ = ",
"i :...:.%.).(.&X&X&X&X&X1X2X&X&X&X(.(.(.(.(.(.(.(.(.(.^.).(.^.)./.).).).~.Y.G.G M.m.M.G C.G G G G G G G G G M.G M.G ! h.y.t.h + ",
"i ;. .>.P (.<X3X4X3X3X8X8XpX8X9X4X3X3X3X3X<X<X<X<X<X1X1X1X X X X X X'.(.)./.Y.Z.V.V.m.m.C.C.C.C.C.m.m.N.N.B.N.N.B.B.J.i.6.t.g   ",
"i ;.$.1.%.%X2X3X8XwX8X8XpXpXpXpX8X9X7X3X4X3X3X3X<X<X<X0X5X<X5X<X6X<X1X'./.~.Y.G.V.V.m.C.C.C.C.C.C.m.N.N.N.N.B.N.N.N.J.l.9.q.v   ",
"i &.$.,.P (.<X7X8XwXpXgXaXhXgXgXpXpXpXwX8X9X7X9X9X9X9X0X0X0X0X0X6X<X X X/./.Y.G.G.V.V.m.m.m.m.m.m.V.N.N.N.N.N.m.N.N.J.i.9.q.g o ",
"i ;. .>.B !  X7X8XpXgXjXhXhXhXhXhXhXjXpXpXpXpX8XiX8X8XyXyX9X9XyX9X6X7X7X,X/.Y.G.V.V.V.V.m.V.V.V.V.m.V.N.G N.N.m.N.N.J.l.5.r.f   ",
"w  .&.:.l F E.&XwXwXaXhXcXhXlXlXxXxXcXcXhXjXgXgXjXgXgXiXyX9XiXkXcXkXxXlX0X'.R.G.D.V.V.V.V.A.A.V.V.N.N.m.V.N.N.N.N.N.! l.2.8.f   ",
"w .. .:.k 7 F Q.3XwXhXhXcXxXxXvXvXZXxXxXkXcXcXcXcXjXgXgXyXyXyXkXZXZXvXcX2X).Y.P.L.D.L.D.A.V.A.V.V.V.V.V.V.N.N.N.N.N.J.l.1.8.g   ",
"w ..$.:.l 3 6 D W.wXjXjXcXxXvXZXSXAXZXZXxXcXcXxXcXjXgXyXuX0XyXjXMXCXNXkX,XR.Y.P.P.P.P.A.A.A.A.A.S.S.S.V.V.V.S.V.V.V.J.l.2.8.g   ",
"w ..$.:.d 3 1 4 Y (.pXhXlXlXvXAXSXGXSXAXMXxXcXcXjXyXyXyXuX0X0XyXNXJXAXkX'.T.I.I.I.T.P.L.A.A.V.A.S.S.S.S.S.S.S.V.S.V.J.l.1.6.f   ",
"w ..$.:.k 3 1 1 6 W 3XjXxXxXZXZXSXHXHXAXxXcXzXjXyXuX6X5X0XyXuXyXAXLXPXkX'.R.T.T.Y.I.P.L.A.V.A.D.S.A.S.S.A.A.S.S.N.N.J.h.1.6.f   ",
"w } $.,.l % < < % F W.zXcXxXxXZXAXSXGXZXcXfXzXyXuXrX5X5XyXyXiXkXPXLXPXkX,X!.R.R.Y.P.L.A.A.A.A.V.A.A.S.A.A.A.Z.S.S.N.J.l.1.6.f   ",
"q ]  .:.p 3 3 % % 3 Y <XzXcXcXzXcXvXZXvXcXzXfXuX0X|.5X0XyXzXcXNXHXLXLXNX0X'./.R.R.D.D.D.A.Z.A.A.A.A.A.A.A.A.S.S.N.N.J.l.5.6.g   ",
"q ]  .:.p & % < < < F W.fXzXfX6X.XfXzXzXzXfXfXuXrX5X0XzXkXNXAXAXJXLXLXPXNXiX{.`.I.D.D.V.S.S.Z.S.A.V.A.A.A.A.S.S.V.N.J.h.1.y.f   ",
"q |  .:.p 3 < < < < 3 G  XrX|.[.[.{..XtXrXrXrXrX5X5XyXkXBXBXLXLXJXGXLXLXPXxX0X'.R.G.D.D.D.V.A.A.A.A.A.D.A.S.S.N.m.m.J.l.1.6.f   ",
"q }  .:.p & % < < % % V H.{.{.]._.].[.[.{.|.|.|.{.0XuXkXBXLXLXLXKXLXLXLXBXjX0X'.T.L.D.D.D.D.A.A.A.A.A.A.S.V.N.m.m.M.! h.1.6.a   ",
"w }  .:.k & < < % % % < G |..X]._._.].].].{.{.|.{.5XuXkXFXIXIXLXKXLXPXNXyX{.`.R.P.L.A.D.D.A.D.A.A.A.A.S.S.V.m.M.C.C.R l.1.6.f o ",
"q }  .:.p & % % % % * % D (.fX|._._.].[.[.[.{.{.{.{.0XkXbX>Xk.bXLXPXkXrX_.R.Y.I.L.D.D.L.D.D.D.A.D.A.A.S.S.V.M.M.C.C.J.=.1.6.f   ",
"q }  .;.p & % * % * * * 8 Q.6X.X[.].].[.[.[.[.[.{.{.5X0X$XXX%.=XNXkX5X}.!.T.I.I.P.L.L.L.A.L.L.A.A.A.A.G.A.S.N.M.C.C.F.h.1.8.f   ",
"q _ ..;.p * * % # # # # 6 E 6XuX.X].].].].}.}.[.{.}.{.'.}.J.U +X9X5X'.`.R.T.T.I.I.U.L.L.L.L.D.L.U.A.A.U.U.~.Y.S.M.C.J.h.1.6.f   ",
"q } ..;.p # # # # # # # % Y 6XfX.X[.].].]._._._._._.`.`.`.E.K.+X5X{.'.`.`.R.T.T.I.I.I.P.L.L.L.Y./.Y.U.Y.Y.'.1XY.G.B.J.l.1.6.f   ",
"q } ..:.p $ # # # @ @ @ * D <XfXtX[.].].].]._._._.`.`.}.5X,X$X$X5X'.}.}./.!.R.T.I.P.P.P.P.L.Y.'.7X1X/.`.1X9X9X(.U.G.E.l.1.y.f   ",
"q _ ..;.p $ @ @ @ @ @ @ @ F (.gX.X[.].[.].].]._._.`.`.#X,X$XeXeX,X#XR.`.!.`.R.T.I.I.I.U.P.I.'.pXlX8X1X1X9XkXgX1X).Y.W.l.1.6.f   ",
"q _ ..;.i O @ @ @ @ @ @ . F &XfX.X[.]..X[.].].].]./.E.+X+X+X+X$X+X+XK.E.!.!.R.T.T.T.R.R.R.(.9XMXZXkX8X9XhXMXhX3X,X/.+Xx.3.6.f   ",
"q _ ..$.p O @ @ @ @ @ @ . Z %XfXtX.X.X.X.X.X.X|.'.E.R R T T R R R R R B.T.R.R.T.R./.}.,X X<XxXZXAXZXlXkXlXZXhX3X1X(.%Xx.3.6.g o ",
"q _ $.;.p $ @ . @ X @ . . F ^.zXzXfXtXtXtXfXyX'.E.G C V V V V V V V V A B.G.T.!./.{.0X9X7XpXMXAXAXAXAXZXMXMXkX4X,X(.$Xx.3.6.f o ",
"q _ ' ;.i $ @ . X . @ . X D *XvXZXZXxXfXtX6X(.F.C V V V V V C C V V V V V A B.Y.'.6XgXhXgXkXZXAXCXZXCXCXMXnXlXhX9X&X*Xx.9.8.f   ",
"q _ ' ;.p + . . . . . . . T sXGXSXSXZXcXtX~.D C A A C V C U U R U A C V V V C E ).wXlXlXlXlXlXZXZXZXnXnXlXnXmXlXaX(.@Xx.9.6.g   ",
"q _ ..;.i O . X . . . . O ^ FXKXKXHXSXwXK.A 5 J @X$XR A A J.K.+XK.J.U V V 5 5 V W 3XZXZXxXlXlXxXnXlXlXDXCXAXBXmXwX(.@Xx.9.8.g o ",
"q _ ..&.i O . . . . . . 7 j.FXKXKXKXVX*XU 5 Z XXIXIXXXA U K.+X$X+XK.U A V 5 5 5 S W.sXAXDXmXmXnXmXsXlXCXSXSXCXkX2X^.*Xx.9.6.f   ",
"q _ } ;.i O . . . . . . Z oXFXKXKXLXBXeXT 4 U ;XFXFX+XA U J.K.+X+XJ.U A V 5 4 4 4 D *XnXDXmXmXmXsXsXmXVXAXNXlXqX#X(.;Xc.3.6.f o ",
"q _ | &.p O . . . . . . K ;XPXKXHXVXBXbX! 5 Q UXFXBX~ C A A U R R U A V 5 4 4 4 1 6 J =XmXDXmXlXaXeXUXbXmXlXwX7X2X<X=Xc.3.2.f   ",
"q _ ..$.i O . X . . . O Q bXHXHXAXdXbX;XT 8 ^ eXbXUXT V V V Z Z Z Z V 5 5 4 4 4 4 4 8 Q.sXDXlXdXqX;Xk.:XaX8X9X7X3X3XqXc.3.y.f o ",
"q ' ..;.d O . . . . . 7 j.VXHXSXaX;XeXOXZ 8 Q -XUX+XH 4 5 4 5 5 5 5 5 4 4 4 4 1 2 2 6 Y qXDXlXaX4X*X~ ! (.&X<X<X3X3XeXv.e.y.x o ",
"q _ ' ;.d O . . . . . J -XGXSXDX@X@X-X^ 8 5 T oX:XQ 8 2 4 1 1 4 4 4 4 4 4 2 1 1 3 3 * F W.dXlXaX*X%XQ.K.).'.1X<X3X3XdXv.3.6.f o ",
"q _ } ;.d O . . . . 7 Q.VXHXGXnXQ.OXXXK 2 4 K ~ Q C 4 4 4 4 4 4 1 4 4 2 1 4 2 1 3 3 < 6 ^ dXsXqX4X&X*X*X2X#X&X3X3X3XeXv.3.6.f   ",
"q _ ..;.i O . . . O J -XPXKXSXsX! Q J 8 3 1 2 9 8 2 2 2 2 2 4 2 4 1 2 1 1 1 1 1 < < < < T qXdXqX+X+X+X$X$X+X+X0X<X<XqXc.9.6.f   ",
"q _ } $.i O . . . F oXVXKXKXPXdXT 7 6 1 3 1 2 1 1 1 1 2 2 1 1 1 1 1 2 1 1 1 1 < < < < < D *XqX&XJ.U U R U U F.K.(.&X*Xc.3.6.f o ",
"q _ ' ;.i O . . 7 ^ bXLXKXKXFX;XK % < < 1 1 1 1 1 1 1 1 1 1 1 1 1 1 1 < < < < < < # < # F W.+XJ.C V V A A C V A W ).@Xx.3.6.f   ",
"q _ ' $.i O . . J ;XFXHXHXHXFX;XH * % < < < < < 1 < < < 1 < < < < < < < < % < < < < < # 8 T H C V V C U R R U V C D K.z.2.6.g   ",
"q _ ' $.i O $ K ;XFXJXGXGXHXSX=XH % # < 3 9 9 9 3 < < < < < < < < < # < < < < # % % $ @ # 8 Z Z V A ~ $X+XK.J.A V V L p.2.6.f o ",
"q ' ..$.i O K :XFXKXHXHXHXHXSXdXT % % t O.-.=.@.N > % < % < % < < < < < $ % < # % # @ @ $ Z ~ ~ A T -XbX$XK.J.A V 5 n o.,.6.f o ",
"q ' ' $.p K ;XFXKXKXKXKXHXGXSXmX! & e +.z.n.n.n.u.M 7 < < < < % < < < < % % % $ @ @ @ @ $ T -X@XU R UXBXOXU A V V 5 t o.,.6.f o ",
"q _ ' $.I :XFXLXKXKXKXKXSXSXZXsX! 9 M i.b.n.n.n.s.=.t & < # % % $ $ $ # # # $ # @ @ @ @ % J ;XoXK U eXUX~ V V 5 5 4 t X.,.y.f o ",
"w } ' $.j.IXLXHXJXJXHXGXDXvXsX8XQ.m O.@.=.i.s.b.a.=.z r m > % % # # # @ @ @ @ @ @ @ . . # K OX~ Z Z XX:XJ 5 4 4 4 4 t ' $.y./ o ",
"w } ' ;.j.bXVXVXSXHXJXSXDXaX4X3X&XQ M b O.+.=.=.=.@.+.=.=.+.e % # # @ # @ @ @ . @ @ @ @ % 9 Q F 0 8 Z H 8 2 4 2 4 1 t X.2.y.h o ",
"w } '  .B j.oXdXVXJXJXSXvXaX3X8X4XQ.M l z z O.+.+.+.-.n.n.i.j & # # # # @ @ @ @ @ . * 3 % 3 6 3 < 1 0 4 1 1 1 1 1 1 t X.,.r.h o ",
"w o.' &.u m m ! dXSXGXSXDXlXsXaXaX*XP z l l l l z M +.x.s.=.t % # # # @ @ @ @ . @ % 6 F 6 % # < < < < 1 1 < 1 1 < < e ' 2.6.h + ",
"w  .'  .p , , m oXVXGXHXSXSXDXZXvXaX^ l l l j j k k M =.=.z > # # # @ @ @ . @ @ @ 8 Y E 6 * * % % < > #.#.t 0 % < < e ` 2.y.h + ",
"i &.} &.p r , m OXVXHXKXHXSXSXAXvXqXj.l l j j j u u j O.O.e $ # # # @ @ @ . @ * 6 D Q.H.F % % * # > #.i.z.@.t 1 % < r _ ,.r.h + ",
"w  .' | i , , K =XGXHXHXGXSXDXZXlXaXoXI j j j j m e u u e & # # @ @ @ @ * . * 6 D H.H.H.D 2 # % % e +.u.z.a.O.> $ # e _ 2.r.h + ",
"i $._  .p , t Q.DXSXSXVXDXDXnXZXDXvXdX^ N l j j u r e > & $ # @ @ @ @ @ * * S D H.W ~.E G S < % & > M #.+.@.+.e $ # r _ 2.r.h = ",
"i :._  .d 9 Q =XDXDXlXaXaXsXsXDXDXlXqXj.N k j j u u > , & # # . @ @ O * & Z W H.H.H.G H.G D 6 < * , j l l M z > # @ e _ 2.t./ = ",
"i :.) | l K W.4XaXqX&X X X<X4X4X4X2X&XQ.N k j j u u e , 7 3 * * $ $ & : > D H.H.F.F.H.G E G D 6 % 0 e u j j j > $ % t X.2.r.( - ",
"i :.) } M %.oX=X;X*XoXoXoXoXoXoXoXoX:XXX-.+.( ( b b b z B B z l h v / b O.P j.j.~ ^ ^ ^ ^ ^ P L N l z ( ( O./ l p N I p.8.t.( - ",
"i ;._ ;.4.=.h.x.z.z.z.z.z.a.a.a.a.a.a.a.i.9.5.5.7.7.<.<.e.3.1.>.>.1.1.<.7.4.i.=.i.i.i.u.u.u.u.4.>.>.>.>.>.:.>.>.:.:.4.y.t.g.( = ",
"w  . .5.t.q.q.7.7.5.5.<.0.<.<.>.<.<.<.<.<.,.,.,.<.<.>.<.<.,.<.,.<.<.>.,.5.<.<.<.<.>.<.<.<.<.<.<.5.<.<.<.<.<.<.5.5.6.r.g.t.f.c O ",
"y ) :.w.f.f.f.d.d.w.q.q.d.0.0.0.8.8.8.7.7.7.8.7.7.7.7.8.5.5.7.7.8.8.8.8.8.8.q.7.8.8.q.q.8.0.q.q.q.q.q.q.q.q.w.w.d.d.g.f.g.>.i X ",
"+ y i c v v v c s s s g s s a a f a a a a d a a a a d f a a a a a a a a a a a f f a a a a g f s s s s g s g g h h v v v c i = X ",
"X o + - ; ; - - = + = = = = = = = + = = = = = = = = + = = + = = = + = = + - - - - - - - - - - - - - ; ; ; ; ; ; ; ; y y ; + X X "
};
