/* XPM */
static char *_cfe6412e4ee4265fb8bee341558094bnrzz0LPulkKBvXCb[] = {
/* columns rows colors chars-per-pixel */
"64 64 199 2 ",
"   c None",
".  c #090000",
"X  c #020207",
"o  c #1A0101",
"O  c #030915",
"+  c #01051D",
"@  c #350000",
"#  c #390000",
"$  c #36091A",
"%  c #020726",
"&  c #0C1826",
"*  c #030B33",
"=  c #0B1F36",
"-  c #0C223A",
";  c #450101",
":  c #4C0206",
">  c #51070A",
",  c #4B111E",
"<  c #541719",
"1  c #4D1B22",
"2  c #5B252A",
"3  c #632B2F",
"4  c #020955",
"5  c #102E4F",
"6  c #12304C",
"7  c #183C5B",
"8  c #0E2558",
"9  c #000463",
"0  c #000B72",
"q  c #00077B",
"w  c #021572",
"e  c #532E47",
"r  c #563A4C",
"t  c #6B3C41",
"y  c #1F4B73",
"u  c #1A496D",
"i  c #244566",
"p  c #3A4B62",
"a  c #28567C",
"s  c #714B50",
"d  c #535976",
"f  c #495175",
"g  c #6D5D7C",
"h  c #7D6776",
"j  c #8B263E",
"k  c #8F2B49",
"l  c #B03051",
"z  c #8E6468",
"x  c #F44D74",
"c  c #FC527B",
"v  c #061C8C",
"b  c #021599",
"n  c #000B84",
"m  c #043188",
"M  c #0013A3",
"N  c #0019A8",
"B  c #0017B9",
"V  c #0938B5",
"C  c #305D86",
"Z  c #265C8C",
"A  c #2D6799",
"S  c #326B9D",
"D  c #326795",
"F  c #366EA1",
"G  c #3B73A4",
"H  c #3771A3",
"J  c #545C82",
"K  c #5C759F",
"L  c #6C6D89",
"P  c #72758C",
"I  c #727595",
"U  c #457CAD",
"Y  c #4877A4",
"T  c #4C7FB1",
"R  c #677CA1",
"E  c #0010C0",
"W  c #0019D6",
"Q  c #012CCF",
"!  c #001AE8",
"~  c #0023E4",
"^  c #0022FE",
"/  c #002CFD",
"(  c #0020F7",
")  c #0034FF",
"_  c #0647F9",
"`  c #2176FF",
"'  c #93778B",
"]  c #FE5780",
"[  c #E86C9F",
"{  c #4A81B0",
"}  c #5587B7",
"|  c #5B82AB",
" . c #7585A7",
".. c #6C8BB5",
"X. c #798AB8",
"o. c #7A98B8",
"O. c #6884A2",
"+. c #3790F4",
"@. c #3BA1FF",
"#. c #7C9CC1",
"$. c #7396C4",
"%. c #7BA4CD",
"&. c #928FAC",
"*. c #8899B7",
"=. c #908FB6",
"-. c #9EA4B7",
";. c #B4A6AE",
":. c #A3A9BA",
">. c #D587BC",
",. c #839CCC",
"<. c #8D9FDA",
"1. c #969AD5",
"2. c #9B9DCC",
"3. c #A196C0",
"4. c #89A5CA",
"5. c #98ACC9",
"6. c #85A0D1",
"7. c #94AAD6",
"8. c #8EB0D3",
"9. c #9DB6D8",
"0. c #A4B4DC",
"q. c #A9BCD9",
"w. c #B3B6D4",
"e. c #B6B9D7",
"r. c #ADB3D2",
"t. c #9D9FE1",
"y. c #979AFF",
"u. c #9A9DFF",
"i. c #93A4E3",
"p. c #9CA8EB",
"a. c #9EA1FF",
"s. c #9FADF1",
"d. c #A1AFEC",
"f. c #A8B5EC",
"g. c #B2BEEB",
"h. c #B7B8EA",
"j. c #A4ABF3",
"k. c #A2A5FF",
"l. c #A6A9FE",
"z. c #AAADFF",
"x. c #A8A6F3",
"c. c #AEB1FF",
"v. c #A7B2F6",
"b. c #B2B4FF",
"n. c #B6B9FE",
"m. c #BABDFF",
"M. c #B7BDF5",
"N. c #BDACF2",
"B. c #D493D6",
"V. c #C8A0E5",
"C. c #ADC3DE",
"Z. c #B3C2DF",
"A. c #BCC3EB",
"S. c #B9C9E6",
"D. c #BEC1FF",
"F. c #BBC2F6",
"G. c #C3D2DE",
"H. c #D3D1D7",
"J. c #C4C8E4",
"K. c #C1D1EC",
"L. c #D2DEEE",
"P. c #C2C5FF",
"I. c #C6C9FF",
"U. c #CACDFF",
"Y. c #C5CBF0",
"T. c #CBD4F4",
"R. c #CED1FF",
"E. c #CBD8F3",
"W. c #D2D5FF",
"Q. c #D6D9FF",
"!. c #DBDDFF",
"~. c #D6E1ED",
"^. c #D9E5EF",
"/. c #DBE4F5",
"(. c #DEE1FF",
"). c #E3E5FF",
"_. c #E6E8FF",
"`. c #EBECFF",
"'. c #E2E9F7",
"]. c #EFF1FF",
"[. c #F3F4FF",
"{. c #F7F9FF",
"}. c #F9FBFF",
"|. c #F8FAFF",
" X c #FAFBFF",
".X c #F8F9FF",
"XX c #FAFCFF",
"oX c #FBFCFF",
"OX c #FBFDFF",
"+X c #F9FCFF",
"@X c #FCFDFF",
"#X c #FDFDFF",
"$X c #FDFEFF",
"%X c #FCFEFF",
"&X c #FEFEFF",
"*X c #FEFFFF",
"=X c white",
"-X c #FBFCFF",
";X c #E4E2E7",
/* pixels */
"                                                %X%X%X%X%X%X%X%X%X%X%X%X%X                                                      ",
"                                          %X%X%X%X%X%X%X%X%X%X%X%X%X%X%X%X%X                                                    ",
"                                      %X%X%X#X%X#X#X%X%X#X#X%X%X%X%X%X%X%X%X%X                                                  ",
"                                    %X%X%X#X|.#X#X#X%X%X#X%X%X%X%X%X%X%X%X%X%X%X                                                ",
"                                  +X+X+X XOXOX X|.#X%X%X#X%X%X%X%X%X%X%X%X%X%X%X%X                                              ",
"                                OX{.+X|.{. X XOX#X+X%X|.#X%X%X%X%X%X%X%X%X%X%X%X%X%X                                            ",
"                              |.{.OX|.{.OX XOX X|.#X%X#X%X%X%X%X%X%X%X%X%X%X%X%X%X%X%X                                          ",
"                          {.{.{.{.{.OXOX{.OX XOX%X%X#X#X%X%X%X%X%X%X%X%X%X%X%X%X%X%X%X%X                                        ",
"                        {.{.|.{.{.OX|.{.OXOXOX X X=X=XOXOX=X=X=X%X%X%X%X%X%X%X%X%X%X%X%X%X                                      ",
"                        {.|.|.|.{.OX|.OXOXOXOXOXOXOXOX=X=X=XOX=X%X%X%X%X%X%X%X%X%X%X%X%X%X%X                                    ",
"                      `.[.|.|.|.OX{.{.OX X XOXOXOX=X=XOX=X=X=X=X%X%X%X%X%X%X%X%X%X%X%X%X%X%X%X                                  ",
"                      `.[.|.|.|.{. XOX XOXOXOXOX X=XOX=XOX=X=X=X%X%X%X%X%X%X%X%X%X%X%X%X%X%X%X%X%X                              ",
"                    W.`.[.{.{.|. X XOXOXOXOXOXOX=XOX=X=X=X=X=X=X%X%X%X%X%X%X%X%X%X%X%X%X%X%X%X%X%X%X                            ",
"                    Q.`.].{.|.|.OX X XOXOX X=XOXOX=XOX=X=X=X=X=X%X%X%X%X%X%X%X%X%X%X%X%X%X%X%X%X%X%X%X                          ",
"                    (._.].[.|.|. XOX XOXOX=XOX=XOX=X=X=X=X=X=X=X%X%X%X%X%X%X%X%X%X%X%X%X%X%X%X%X%X%X%X                          ",
"                  P.(._.].[.|.+XOX XOXOXOXOX=XOX=X=X=X=X=X=X=X=X%X%X%X%X%X%X%X%X%X%X%X%X%X%X%X%X%X%X%X%X                        ",
"                  U.(.).].].|.+X+X+X%X#X%X%X%X%XOX=X=X=X=X=X=X=X%X%X%X%X%X%X%X%X%X%X%X%X%X%X%X%X%X%X%X%X                        ",
"                  W.(.(.].].[.+X%X%X%X%X%X%X%X%X=X=X=X=X=X=X=X=X%X%X%X%X%X%X%X%X%X%X%X%X%X%X%X%X%X%X%X%X%X                      ",
"                D.R.(.(._.].[.|.+X%X%X%X%X%X%X%XOX=X=X=X=X=X=X=X%X%X%X%X%X%X%X%X%X%X%X%X%X%X%X%X%X%X%X%X%X                      ",
"                D.W.Q.(.).].[.|.%X%X%X%X%X%X%X%X=X=X=X=X=X=X=X=X%X%X%X%X%X%X%X%X%X%X%X%X%X%X%X%X%X%X%X%X%X%X                    ",
"                U.R.Q.(.).`.].{.%X%X%X%X%X%X%X%X=X=X=X=X=X=X=X=X%X%X%X%X%X%X%X%X%X%X%X%X%X%X%X%X%X%X%X%X%X%X                    ",
"              n.U.R.W.(.).`.].{.%X%X%X%X%X%X%X%XOX=XOX=X=X=X=X=X%X%X%X%X%X%X%X%X%X%X%X%X%X%X%X%X%X%X%X%X%X%X                    ",
"              n.P.R.W.!.)._.`.[.#X%X%X%X%X%X%X%X=X=X=XOX=X=X=X=X%X%X%X%X%X%X%X%X%X%X%X%X%X%X%X%X%X%X%X%X%X%X                    ",
"              D.P.R.W.!.(._.].[.|.%X%X%X%X%X%X%XOX=X=X=X=X=X=X=X%X%X%X%X%X%X%X%X%X%X%X%X%X%X%X%X%X%X%X%X%X%X                    ",
"              m.P.U.W.Q.(.).`.[..X%X%X%X%X%X%X%X%X%X%X%X=X=X=X=X%X%X%X%X%X%X%X%X%X%X%X%X%X%X%X%X%X%X%X%X%X%X                    ",
"            c.m.P.U.U.Q.(.)._.].[.%X%X%X%X%X%X%X%X%X%X%X=X=X=X=X%X%X%X%X%X%X%X%X%X%X%X%X%X%X%X%X%X%X%X%X%X%X                    ",
"            c.m.P.I.R.Q.Q.(._.].[.#X%X%X%X%X%X%X=X=X%X%XOX=XOXOX%X%X%X%X%X%X%X%X%X%X%X%X%X%X%X%X%X%X%X%X%X%X%X                  ",
"            b.n.D.P.g.$.4.E.).`.[.[.|.#X%X%X%X+X=X=X[.^.~.^.^.{.%X%X%X%X%X%X%X%X%X%X%X%X%X%X%X%X%X%X%X%X%X%X%X                  ",
"          l.b.n.m.P.8.H A { C.).`./.'.'.%X|.|.[.~.r.o.H H G { C.%X%X%X%X%X%X%X%X%X%X%X%X%X%X%X%X%X%X%X%X%X%X%X                  ",
"          l.z.b.m.P.d.U S A S 8.K.C.%.S././.L.#.Y A A S H G } C.%X%X%X%X%X%X%X%X%X%X%X%X%X%X%X%X%X%X%X%X%X%X%X                  ",
"          k.z.b.m.D.D.%.G F y 7 G U T U } G a u Z A S H H G 8.{.%X%X%X%X%X%X%X%X%X%X%X%X%X%X%X%X%X%X%X%X%X%X%X                  ",
"          k.z.b.b.V.U.F.{ G - m 5 G ,.S a - 8 * 6 S H G } C.].|.%X%X%X%X%X%X%X%X%X%X%X%X%X%X%X%X%X%X%X%X%X%X%X                  ",
"        a.a.k.z.c.F.V.P.6.Y w +.w o./...- v +.V + D Y U e.[..X.X#X|.-X-X#X#X#X%X%X%X%X%X%X%X%X%X%X%X%X%X%X%X%X                  ",
"        y.a.k.z.c.F.D.P.g.K b ` N -._.5.O Q @._ 4 C { 4.`.].[..X[..X-X-X-X-X#X#X%X%X%X%X%X%X%X%X%X%X%X%X%X%X%X%X                ",
"        y.y.a.k.z.c.n.m.P.7.M ) B e.).J.+ ~ _ / 0 a 4.!.].].[.].[.[.[.[..X|.|.#X#X#X%X%X%X%X%X%X%X%X%X%X%X%X#X#X                ",
"      y.y.y.a.a.l.c.b.m.P.M.b ^ N w.).J.% ~ ^ ( 0 -.).`.`.].`.].].].[.[.[.[.[..X.X#X#X#X%X%X%X%X%X%X%X%X%X%X#X.X                ",
"      y.y.y.a.a.l.z.b.n.m.M.v ^ M w.!.J.O W ^ ( 4 w.'.`.`.`.`.`.`.`.].].].[.[.[..X.X#X#X%X%X|.#X%X%X#X#X#X#X-X[.|.              ",
"    y.y.y.y.y.a.a.l.c.b.m.m.8 ! n w.!.J.& B ^ ! * e.).).)._.)._.`.`.`.`.].].].[..X|.#X#X#X|.#X#X#X%X|.#X|..X].].[..X            ",
"    y.y.y.y.a.a.a.a.z.c.n.m.i 9 * A.Q.T.f 4 E q & Z.).).).).)._.)._._._.`.].].[..X|.#X|.|.#X|.#X#X|.#X.X.X[._.`.].[.            ",
"    y.y.y.y.y.a.a.a.l.z.b.n.K X p U.W.Q. .O + X i A.!.!.(.(.(.(.).)._._.`.`.].[.[..X.X|.|..X|.#X.X.X.X.X[._.)._.`.`.[.          ",
"  y.y.y.y.y.u.a.a.k.k.l.b.b.,.y ..U.W.W.h.i - 7 R W.!.!.!.!.!.(.).).).).`.`.`.[.[.|.|..X|.|..X|..X.X[.[.`.).(.).).`.].          ",
"  y.y.y.y.y.y.u.u.a.k.k.z.b.M.} f.P.R.U.U...D G 0.W.Q.Q.Q.!.!.!.!.(.).)._.`.[.[.[.[.|.[..X|.[.[.[..X[.].).!.Q.!.).)._.].        ",
"y.y.y.y.y.y.y.a.a.k.k.l.l.c.b.m.P.P.U.U.U.U.9.g.R.W.W.W.Q.Q.Q.!.!.(.).)._.`.].[.[.{..X[.{.[.[.[.[.[.].).!.W.Q.Q.!.(.).`.        ",
"y.y.y.y.y.y.y.y.u.u.k.k.l.z.b.b.m.P.P.U.U.U.U.U.R.R.R.W.R.W.W.Q.!.).).)._.`.`.].[.{.[.[.{.[.[.[.[.].).!.W.R.U.W.Q.!.(.).`.      ",
"        y.y.y.u.u.k.j.v.l.l.c.b.D.D.D.D.I.I.I.U.U.U.U.U.U.W.Q.!.!.(.(.)._.].].].[.[.[.[.[.[.[.[.]._.(.W.U.I.U.W.W.Q.!.(.).).    ",
"              u.u.u.s.8.4.j.z.c.F.D.D.D.P.P.I.P.I.U.U.U.R.W.Y.Z.K.V.E.)._._.`.].[.[.[.[.[.[.[.]._.!.Q.R.P.P.I.U.R.W.W.!.!.).    ",
"              u.u.k.a.j.<.X.z.c.c.b.D.D.V.P.P.P.P.P.U.R.Y.*.O.4.q.9.E.).).`.].].[.[.].[.`.[.`._.(.Q.R.I.D.m.P.P.I.U.W.W.!.!.).  ",
"              y.y.u.k.k.k.X.6.z.c.b.D.D.D.m.m.P.P.P.U.h.I R S.W.Q.Q./.(._._._.].`.[.[.`.].].`.(.(.R.R.V.n.n.m.P.P.U.R.R.Q.!.!.  ",
"              y.u.u.a.a.k.p.J x.c.b.n.m.m.m.m.P.P.D.0.d f C.W.Q.(.(.(.(._._._.].].].].].]._.).!.R.U.D.n.b.b.n.m.P.P.I.U.W.Q.Q.!.",
"              u.u.a.a.k.k.z.R X.x.z.b.b.n.b.m.F.0.*.I f *.W.W.W.Q.(.(.(.(._._.].`.].].].`.).!.R.U.D.n.c.z.                      ",
"                u.u.a.a.k.l.1.-.*.d.c.b.b.m.5.P O.J.:.P S.R.W.W.Q.Q.(.(._._._.].].`.]._.).Q.W.U.D.n.c.                          ",
"                y.u.a.a.k.k.d.-.;.L x.x.1. .d 1 ' ;X&.=.R.R.W.W.W.(.(.(.(._._.`.`.`.`.).(.W.U.P.D.n.                            ",
"                y.u.u.k.k.k.l.3.;.2 L r 1 z ' < z H.&.h.U.R.R.W.Q.(.(.(.(._.`.`.`._._.(.Q.U.P.m.c.z.                            ",
"                y.u.u.a.a.a.k.l.I > s t ; 3 3 > 2 z &.I.I.R.R.W.Q.Q.Q.(.(._.`.`._._.(.W.R.P.m.b.z.                              ",
"                    u.u.u.k.k.k.t.3 : # @ @ # ; : e h.I.I.U.R.R.Q.Q.(.(.(._._._._.(.Q.R.P.m.b.l.                                ",
"                      y.u.u.u.k.k.,.$ o . X . o $ h h.D.I.U.R.R.W.W.Q.(.(.)._._.(.Q.R.P.m.b.l.                                  ",
"                        u.u.u.a.a.j.' j , , k l k -.D.D.P.P.U.R.R.Q.Q.(.(.(.'.(.Q.R.I.m.c.l.                                    ",
"                            y.u.u.a.a.[ x x ] c B.n.n.D.D.P.I.U.U.W.W.(.(.(.(.Q.R.I.m.b.l.                                      ",
"                              y.u.a.s.x.B.B.V.N.x.f.F.n.D.D.P.U.U.W.W.Q.W.W.R.R.P.m.b.l.                                        ",
"                                y.y.a.i.t.k.l.d.,.7.n.n.D.D.P.I.D.R.D.U.D.U.D.D.m.b.l.a.                                        ",
"                                    u.u.i.#.o.,.7.b.b.b.n.m.D.D.D.m.m.m.D.F.b.b.b.l.a.                                          ",
"                                      y.a.a.v.l.l.z.z.b.b.b.c.c.c.z.c.z.v.z.z.z.l.a.                                            ",
"                                        y.u.u.k.k.l.l.l.l.l.k.k.a.a.a.a.a.a.a.a.                                                ",
"                                            u.u.k.u.a.u.                                                                        "
};
