/* XPM */
static char *_96a1f3586ae4fb5fd7154c4e1ad70e2uKK4b9jMqYjlG8mF[] = {
/* columns rows colors chars-per-pixel */
"64 64 226 2 ",
"   c None",
".  c #0C0502",
"X  c #050101",
"o  c #150904",
"O  c #190A05",
"+  c #16120E",
"@  c #211209",
"#  c #241606",
"$  c #22140A",
"%  c #342818",
"&  c #342817",
"*  c #473E37",
"=  c #4A402B",
"-  c #60553A",
";  c #5D534A",
":  c #6E5A44",
">  c #79674E",
",  c #7D7268",
"<  c #991C17",
"1  c #B81B17",
"2  c #B3211D",
"3  c #BF1B21",
"4  c #902126",
"5  c #B92824",
"6  c #AB3833",
"7  c #B63633",
"8  c #AD322A",
"9  c #D50D0F",
"0  c #C31616",
"q  c #D9161B",
"w  c #CB0C10",
"e  c #EA080C",
"r  c #F30D0C",
"t  c #EB160E",
"y  c #F21A0E",
"u  c #E70C12",
"i  c #EC1C1C",
"p  c #E81713",
"a  c #F21412",
"s  c #EE2514",
"d  c #EB2A1C",
"f  c #F62512",
"g  c #F52B1B",
"h  c #F42A14",
"j  c #F5321C",
"k  c #F83118",
"l  c #F6200E",
"z  c #DD1B20",
"x  c #D81422",
"c  c #C32A22",
"v  c #CE2423",
"b  c #DA2B2C",
"n  c #D72728",
"m  c #DC3226",
"M  c #D3332C",
"N  c #DA322E",
"B  c #CA3A35",
"V  c #D53533",
"C  c #D53939",
"Z  c #D32F2D",
"A  c #E42827",
"S  c #F42D26",
"D  c #EA362A",
"F  c #F53421",
"G  c #F23A23",
"H  c #F53D2B",
"J  c #E63C32",
"K  c #EC3B31",
"L  c #E73535",
"P  c #F43A32",
"I  c #EB2C31",
"U  c #CB443C",
"Y  c #D94538",
"T  c #F5422C",
"R  c #ED4435",
"E  c #EB4A3C",
"W  c #E9433B",
"Q  c #F44B34",
"!  c #F34B3B",
"~  c #F3433A",
"^  c #F4533E",
"/  c #E7503F",
"(  c #CB3E47",
")  c #E53A40",
"_  c #995155",
"`  c #B75954",
"'  c #886752",
"]  c #847359",
"[  c #92784A",
"{  c #9C756C",
"}  c #B3726B",
"|  c #C34A46",
" . c #DC4443",
".. c #D24747",
"X. c #C4524A",
"o. c #D85546",
"O. c #C85B54",
"+. c #D65F54",
"@. c #ED4D43",
"#. c #E44E45",
"$. c #EA554A",
"%. c #F65944",
"&. c #F55747",
"*. c #F24D44",
"=. c #D9685C",
"-. c #C76359",
";. c #F46253",
":. c #F56858",
">. c #EC6251",
",. c #CF6B64",
"<. c #F87566",
"1. c #F57769",
"2. c #EF7F72",
"3. c #ED756C",
"4. c #9A8353",
"5. c #AB8D5B",
"6. c #AE935E",
"7. c #B1955D",
"8. c #BA9B5C",
"9. c #AD8C4E",
"0. c #948578",
"q. c #958270",
"w. c #A78E6A",
"e. c #AF9362",
"r. c #A7926B",
"t. c #B19663",
"y. c #B49A65",
"u. c #B99D64",
"i. c #B49B6A",
"p. c #B09569",
"a. c #AA9676",
"s. c #B49D73",
"d. c #B59D79",
"f. c #BFA264",
"g. c #BDA36B",
"h. c #B7A16B",
"j. c #BBA373",
"k. c #B9A37B",
"l. c #B6A17A",
"z. c #C58279",
"x. c #F68477",
"c. c #E6837A",
"v. c #C6AA6B",
"b. c #C9AE6B",
"n. c #C4A666",
"m. c #C1AA7C",
"M. c #CCB376",
"N. c #D5BB79",
"B. c #DEC47C",
"V. c #E0C77E",
"C. c #9D938D",
"Z. c #9B9085",
"A. c #9E9794",
"S. c #9A8E85",
"D. c #A1968D",
"F. c #A79886",
"G. c #A49E9C",
"H. c #A69B94",
"J. c #B09E93",
"K. c #B9A483",
"L. c #BEAB83",
"P. c #ACA39C",
"I. c #B4A79A",
"U. c #9F9EA0",
"Y. c #A6A5A8",
"T. c #BBB3AB",
"R. c #BCB5AE",
"E. c #CB9489",
"W. c #F9968B",
"Q. c #FC9C91",
"!. c #C1AB89",
"~. c #D0BC8F",
"^. c #FDA99D",
"/. c #FAA59A",
"(. c #C5BAAD",
"). c #C6B5A9",
"_. c #CABFB3",
"`. c #C4BCB5",
"'. c #D5BDB0",
"]. c #FCADA2",
"[. c #DDC582",
"{. c #DAC58F",
"}. c #D8C593",
"|. c #E1CA86",
" X c #E9D18C",
".X c #EBD494",
"XX c #ECD69C",
"oX c #E9D49D",
"OX c #F2DB98",
"+X c #E6CF90",
"@X c #CDC4BA",
"#X c #CBC2B9",
"$X c #D1C7BB",
"%X c #D5CABD",
"&X c #DDC6B9",
"*X c #E9D5A2",
"=X c #F1DFB5",
"-X c #F8E5AC",
";X c #F8E6B0",
":X c #CCC8C4",
">X c #CAC5C1",
",X c #D2CBC3",
"<X c #D3CEC9",
"1X c #DBCFC4",
"2X c #DBD1C4",
"3X c #D7D1CB",
"4X c #DCD5CB",
"5X c #DFD8CF",
"6X c #DED8D1",
"7X c #E3D9CD",
"8X c #E1D3C7",
"9X c #E4DDD3",
"0X c #E9DED2",
"qX c #EAE1D6",
"wX c #ECE4DA",
"eX c #EFE8DE",
"rX c #F1EADF",
"tX c #F8E9C4",
"yX c #F2ECE2",
"uX c #F5EFE8",
"iX c #F6F1EA",
"pX c #F9F4EC",
"aX c #F6F0E7",
"sX c #FBF7F2",
"dX c #FDF9F4",
"fX c #EEE8E0",
/* pixels */
"                                                                                                                                ",
"                                                                                                                                ",
"                                                                                                                                ",
"                                                                                                                                ",
"                                                                                                                                ",
"                                                                                                                                ",
"                                                                                                                                ",
"                                                                                                                                ",
"                                                                                                                                ",
"                                                                                                                                ",
"                                                                                                                                ",
"                                                                                                                                ",
"                                                                                                                                ",
"                                                                                                                                ",
"                                                                                                                                ",
"                                                                                                                                ",
"                                                                                                                                ",
"                                                                                                                                ",
"                                                                                                                                ",
"                                                                                                                                ",
"                                                                                                                                ",
"                                                                                                                                ",
"                                                                                                                                ",
"                                                                                                                                ",
"                                                                                                                                ",
"                                                                                                                                ",
"                                                                                                                                ",
"                                                                                                                                ",
"                                                                                                                                ",
"                                                                                                                                ",
"                                                                                                                                ",
"                                                                                                                                ",
"                                                        L A i t r p i I                                                         ",
"                                                     .b u e e e i L n q z )                                                     ",
"                                                  ( x u b Z M U | 0 r r r a P                                                   ",
"                                                7 4 0 v 9 e y s 9 w s y a y f P                                                 ",
"                                              ( x x w u y s h h p 0 g k f f f k P                                               ",
"                                             .n z ..p t k k j T D 1 R T F k k f F *.                                            ",
"                                            N n Y M p d G T Q ^ %.2 $.&.Q H j k g H                                             ",
"                                          ..b q O.q s G T Q ^ :.<.8 >.x.:.&.H F g F *.                                          ",
"                                          C A L | i d G R ^ ;.<.W.X.,.^.W.<.&.P S S P                                           ",
"                                        | C n  .B A D T Q ^ :.1.^.,.6 3.].W.<.&.P S I ~                                         ",
"                                        | V b ..v A D R ! %.:.2.^.O.c.-.=./.W.3.@.#.@.$.                                        ",
"                                        B N b ` b A P R ^ %.>.2.W.` /.].,.O.+.,.'.9X0XwXqX                                      ",
"                                      ` B M V 6 N D J W *.$.;.3.c.X.2.o.} '.0XqXfXyXyXrXeXqX                                    ",
"                                    :X} B M M < M N J W *.$.:.<.=.8 p.%X0XwXyXuXiXpXaXuXyXwXqX                                  ",
"                                    ,X_ 7 Z c Y 5 D R R E E $.o.z.2XqXwXuXiXsXdXsXpXuXuXeXqX0X9X                                ",
"                                  :X<X{ 8 c c / 2 m m m m U E.8XqXwXrXaXsXdXdXdXpXaXeX0X7X4X4X4X                                ",
"                                  :X3X:X' 8 5 B 6 c 7 } '.4X7X9XwXrXaXdXdXdXpXyXwXqX8X,X#X(.@X,X                                ",
"                                  :X<X3X1X_.J.J.).,X2X7X9X9X9XwXrXaXpXpXpXrXqX8X%X_.H.0.a.C.P.R.                                ",
"                                  `.:X<X<X4X3X4X4X6X7X9X9X0XqXeXrXyXyXeX0X8X$XT.0.* + : a.S.A.P.                                ",
"                                  Y.`.:X<X<X3X6X4X6X6X9X9X0XqXqXqX7X%X$X).I.K.d.% X . : !.C.H.                                  ",
"                                  Y.Y.`.:X:X3X3X4X4X4X8X4X4X%X%X#X(.I.H.q.4.~.*X* . o , =XI.                                    ",
"                                    U.Y.T.`.#X@X$X:X$X@X_.(.T.P.D.0.; ] 5.g.-X;X- . O a.tX                                      ",
"                                      G.A.A.P.P.Y.P.P.J.H.C.S., = $ o : u.v.XX;Xw.X & ~.;X                                      ",
"                                        Y.G.A.C.D.C.D.Z.F.' % + $ # o 4. X8.[.OX+X[ 4.oX*X                                      ",
"                                          d.a.r.r.r.w.p.s.r.# @ $ $ # M.OX8.f.|.XXXXXXXX                                        ",
"                                          k.s.i.i.t.e.u.g.g.] O O & g..XOXN.9.f.[. X+X{.                                        ",
"                                          L.k.t.y.t.6.u.u.v.N.{.}.N. X X X[.e.6.i.m.                                            ",
"                                            L.j.y.y.6.7.u.b.N.[.|.b.M.V.V.B.f.t.s.K.                                            ",
"                                              L.j.i.t.6.7.8.f.v.M.M.6.f.v.v.u.s.K.                                              ",
"                                                L.j.h.t.7.6.7.8.8.u.8.5.6.t.s.                                                  ",
"                                                    m.j.t.t.t.6.6.7.t.i.s.l.                                                    ",
"                                                        L.k.j.j.l.k.k.                                                          "
};
