/* XPM */
static char *_bee4338679347ab9b3683cf9555cdd12PPIZv1SopymXqKt[] = {
/* columns rows colors chars-per-pixel */
"64 65 205 2 ",
"   c #497447",
".  c #5D724B",
"X  c #4E7E54",
"o  c #68734B",
"O  c #6C7953",
"+  c #5E6376",
"@  c #68746A",
"#  c #636374",
"$  c #6A6A75",
"%  c #65697B",
"&  c #6A6C7A",
"*  c #6B777D",
"=  c #76757D",
"-  c #78787F",
";  c #864C35",
":  c #A4433F",
">  c #B13E45",
",  c #985D49",
"<  c #B44648",
"1  c #B7564E",
"2  c #BC5651",
"3  c #B45E50",
"4  c #BE5A53",
"5  c #97644B",
"6  c #89785A",
"7  c #9B755C",
"8  c #A26953",
"9  c #A96B5A",
"0  c #B86657",
"q  c #B6745F",
"w  c #9C7662",
"e  c #8F7470",
"r  c #B7726A",
"t  c #B67C6C",
"y  c #BD7968",
"u  c #C15F56",
"i  c #C16156",
"p  c #C4655A",
"a  c #C46B5B",
"s  c #C96C5D",
"d  c #CA735E",
"f  c #CB7B5F",
"g  c #CD7362",
"h  c #C87964",
"j  c #D17A66",
"k  c #468657",
"l  c #55855A",
"z  c #588E66",
"x  c #579469",
"c  c #5C926B",
"v  c #569D71",
"b  c #5A9C71",
"n  c #798D6D",
"m  c #62946D",
"M  c #6E9168",
"N  c #7B8575",
"B  c #639C75",
"V  c #689B77",
"C  c #769875",
"Z  c #61A47B",
"A  c #6DA17D",
"S  c #73A27C",
"D  c #9A856C",
"F  c #8F8475",
"G  c #878B7A",
"H  c #968673",
"J  c #9E967F",
"K  c #AC816F",
"L  c #B6816E",
"P  c #AC8673",
"I  c #AB8A75",
"U  c #A38978",
"Y  c #B18371",
"T  c #A2927C",
"R  c #D8836C",
"E  c #D48868",
"W  c #D8966A",
"Q  c #D9956C",
"!  c #DF9771",
"~  c #DF9871",
"^  c #DFA370",
"/  c #E1A672",
"(  c #E2AA72",
")  c #E9B878",
"_  c #EFC27C",
"`  c #656E83",
"'  c #6C7182",
"]  c #757B88",
"[  c #778989",
"{  c #78968B",
"}  c #719D8C",
"|  c #7A8292",
" . c #7F8898",
".. c #6BA983",
"X. c #6CAC86",
"o. c #74A98B",
"O. c #6DB48B",
"+. c #72B48E",
"@. c #77A792",
"#. c #7DA492",
"$. c #7AB594",
"%. c #7ABA96",
"&. c #76BB98",
"*. c #7BBE9A",
"=. c #7EC19E",
"-. c #9A9982",
";. c #818695",
":. c #828B9B",
">. c #8B8E9C",
",. c #8B919E",
"<. c #B6888D",
"1. c #A49983",
"2. c #B89F8D",
"3. c #B38D93",
"4. c #AD9B92",
"5. c #86A78D",
"6. c #9DA187",
"7. c #9AA58A",
"8. c #95A98D",
"9. c #80AD96",
"0. c #94AC90",
"q. c #86B595",
"w. c #8EB596",
"e. c #82B69B",
"r. c #83BC9E",
"t. c #8BBC9B",
"y. c #96B497",
"u. c #BAA48D",
"i. c #8B95A4",
"p. c #8B96A5",
"a. c #939AA6",
"s. c #9898A3",
"d. c #929EAC",
"f. c #9E9FAA",
"g. c #B297A0",
"h. c #8EAEA1",
"j. c #93A0AE",
"k. c #9BADAB",
"l. c #89B3A4",
"z. c #96B7A9",
"x. c #9FB4AF",
"c. c #9EA8B5",
"v. c #A3A8AF",
"b. c #B0A3AE",
"n. c #A5A9B4",
"m. c #B4A8B3",
"M. c #ACB3BB",
"N. c #B3B5BD",
"B. c #C3AA98",
"V. c #C9B39C",
"C. c #C1ADA1",
"Z. c #D1BBAA",
"A. c #80C29F",
"S. c #89C09E",
"D. c #85C6A3",
"F. c #88C8A5",
"G. c #89C8A6",
"H. c #8CCBAA",
"J. c #98C1AE",
"K. c #92CEAE",
"L. c #9DC4B1",
"P. c #95CEB2",
"I. c #95D1B1",
"U. c #9AD4B5",
"Y. c #9ED7B9",
"T. c #9FD8BA",
"R. c #A4C7B8",
"E. c #B1CFBF",
"W. c #A3D6BE",
"Q. c #A4DBBE",
"!. c #B1D0BF",
"~. c #ACB5C3",
"^. c #B8BCC5",
"/. c #BCC2CC",
"(. c #A5D7C0",
"). c #A6DBC1",
"_. c #A9DBC3",
"`. c #B3D2C2",
"'. c #B5DAC8",
"]. c #B3DEC9",
"[. c #BADBCB",
"{. c #BFC6D1",
"}. c #B7E0CB",
"|. c #BBE3CD",
" X c #BFE5D0",
".X c #C2C4CB",
"XX c #C3CAD5",
"oX c #C8CCD6",
"OX c #CED0D7",
"+X c #D5D5DC",
"@X c #C1E6D1",
"#X c #C2E7D2",
"$X c #C3E7D3",
"%X c #C5E8D4",
"&X c #C5E8D5",
"*X c #C7E9D6",
"=X c #C8E9D7",
"-X c #C9E9D8",
";X c #CBEADA",
":X c #CCEBDB",
">X c #CDEBDC",
",X c #CFECDE",
"<X c #D0ECDF",
"1X c #D8DAE3",
"2X c #E4E6EE",
/* pixels */
">X$X$X|.|.$X#X#X:X$X#X#X|.#X#X#X#X>X#X#X$X|.#X#X#X:X#X#X#X|.#X#X#X#X:X#X#X#X|.#X#X#X;X&X#X#X|.#X#X#X#X:X#X#X#X|.#X#X#X;X&X#X#X|.",
"$X$X;X$X#X#X|.#X$X#X;X&X#X#X}.#X#X#X#X:X$X$X#X|.#X#X#X=X&X$X#X}.#X#X$X#X:X#X#X#X|.#X#X#X#X;X#X#X}.#X#X#X#X>X#X#X#X}.#X#X#X&X=X$X",
"#X#X&X#X|.$X#X#X#X#X&X$X$X|.#X#X#X#X#X&X$X|.$X#X#X#X#X#X#X#X|.#X#X#X#X|.&X#X|.#X#X#X#X#X#X&X#X|.#X#X#X#X#X&X#X|.#X#X#X#X#X#X&X#X",
"#X;X&X#X|.#X#X#X#X#X>X#X#X|.#X#X#X#X;X&X|.|.#X#X#X$X$X:X#X#X$X#X#X#X#X;X;X#X|.#X#X#X#X#X>X#X#X X#X#X#X#X&X;X#X|.#X#X#X#X#X>X#X#X",
"#X#X#X#X&X#X#X#X#X#X#X#X#X$X#X#X$X#X#X#X#X&X#X#X#X#X#X#X#X#X&X#X#X#X#X#X#X#X&X#X#X#X#X#X#X#X#X#X#X#X X#X#X#X#X&X#X#X#X#X#X#X#X#X",
"#X|.|.#X>X#X$X#X|.#X}.#X=X&X#X$X|.#X|.|.#X:X#X&X#X|.#X}.#X#X;X#X$X|.#X|.|.#X:X#X&X#X|.#X}.#X#X;X#X&X X X X|.#X;X#X#X#X|.#X}.#X#X",
"#X#X#X#X#X#X>X#X#X#X#X#X#X$X$X:X#X#X#X#X#X#X#X:X#X#X#X#X#X#X#X#X:X#X#X#X#X#X#X#X:X$X#X#X#X#X#X#X#X>X#X#X#X#X#X#X#X=X&X X#X#X#X#X",
"}.#X#X#X#X&X;X#X}.#X#X#X#X$X:X#X#X|.#X#X#X#X$X:X#X|.#X#X#X#X#X:X#X#X}.#X#X#X#X#X:X#X|. X#X#X#X#X;X#X#X|.#X#X#X#X#X>X$X X X#X#X#X",
"#X#X#X#X#X#X#X#X#X#X#X#X#X#X#X#X#X#X#X#X#X#X#X$X#X#X#X#X#X#X#X$X#X#X#X#X#X#X#X#X#X#X#X#X#X#X#X#X#X#X#X#X#X#X#X#X#X#X#X#X#X#X#X#X",
":X#X#X X X#X|.#X:X$X#X#X|.#X|.#X#X<X#X#X|.|.#X|.#X:X&X#X#X}.#X|.#X#X<X#X#X#X|.#X X#X;X&X#X#X}.#X X#X#X>X#X#X#X|.#X|.#X;X=X#X#X|.",
"#X#X<X#X#X#X X#X$X#X:X=X#X#X|.#X#X#X#X>X$X#X#X X#X#X#X=X;X#X#X|.#X#X#X#X>X#X#X#X X#X#X#X=X;X#X#X X#X#X#X#X>X#X#X#X X#X#X#X&X;X#X",
"#X&X#X#X}.#X#X#X#X#X=X#X|.|.#X#X#X#X&X&X$X}.#X#X#X#X#X&X#X#X|.#X#X#X#X&X&X#X}.#X#X#X#X#X&X#X#X|.#X#X#X X&X&X#X|.#X#X#X#X#X&X#X#X",
"#X:X#X#X#X#X#X#X#X#X;X#X#X#X#X#X#X#X&X&X#X#X#X#X#X#X#X:X#X#X#X#X#X#X#X&X=X#X#X#X#X#X#X#X;X#X#X#X#X#X#X#X&X=X#X#X#X#X#X#X#X;X#X#X",
"#X#X#X#X<X#X#X#X|.#X#X#X;X;X#X#X|.#X#X#X#X<X#X#X#X}.#X#X#X&X:X#X#X|.|.#X#X#X:X#X#X#X|.#X X#X#X:X#X#X#X|.#X@X#X>X#X#X#X|.#X#X#X#X",
"#X|.#X#X#X#X:X#X#X#X|.#X#X#X#X:X#X#X|.|.#X#X#X<X#X#X#X}.#X#X#X#X:X#X#X$X X#X#X#X;X#X#X#X|.#X#X#X#X>X#X#X@X|.#X#X#X;X&X#X$X|.#X#X",
"|.#X#X#X#X#X#X#X|. X#X#X#X#X#X$X#X|.#X#X#X#X#X#X#X|.#X#X#X#X#X#X$X#X|.#X#X#X#X#X#X#X X X#X#X#X#X#X#X X|.#X#X#X#X#X@X#X|.|.#X#X#X",
" X#X#X#X#X&X;X#X|. X&X X&X|.>X%X$X$X X#X#X#X#X>X$X$X$X$X|.#X#X>X$X@X@X@X#X#X#X#X:X X X$X$X X[.M.`.[.[.M.R.`.|.#X|.<X&X|.#X|.&X X",
"=X#X#X#X#X#X#X#X$X}. X X|.`.`.$X$X`.`.|.#X'.`.[.$X[.E.'.#X#X`.`.@X$X`.!.|.#X}.!.[.$X|.`.`.[.>.n.c.c.v.j.n.a.M.|.}.#X X X&X&X&X X",
";X#X&X#X#X X|.).).).W._.n.oX.XL.L.^.+Xx.W.M.+Xv._.k.+X~.R.z.oX.Xx.J.^.OXx.Q.n.+Xn._.x.OX^.z.^.2X2X2X2X2X2X1Xl.).).)._.|. X#X X X",
"#X#X:X#X#X}.).Q.)._._.).x.XXoXt.w.XXXXc.L.^./.M.Q.n..X/.J.k.oXoXy.z.XXXXx.R.^./.N.(.n.{.{.l.i.<.3.~.N.g.<.c.l.).).).).).}.#X X&X",
"#X;X&X#X|.).T.D.H.K.H.L.>.d.f.j.f.d.j.>.N.:.j.| .X| d.:.N.,.j.j.s.v.p.j.,./.| j.| .X .d.i.f.i.t b.b.<.b.<.b.} H.K.K.D.I.).|. X X",
"#X#X#X#X|.).I.D.D.D.D.$.& d.d.+ + d.j.* # :.j.| & ] j.p.# $ j.j.# # j.j.' %  .j.| $ ] d.i.+ i.m.m.~.m.m.m.c.o.F.D.D.D.K.).}.#X#X",
"#X|.#X#X)._.).D.D.D.D.D.{ j.d.} } d.j.[ %.:.j.| D.] j.,.$.[ j.j.} @.p.j.[ l.:.j.| D.| d.i.} ] n.c.a.a.j.c.j.@.G.D.D.D.T._.).#X#X",
"#X#X#X#X)._.).D.D.D.D.D.[ & & { @.& & ] e.& & $ *.* & & @.[ & & [ @.& & * e.% & % %.* & % { % ` + ` % % ` + @.=.D.D.D.Q.).).#X#X",
"}.#X#X#X|.).I.D.D.D.D.D.r.5.[ - r.$.[ - $.e.{ - 5.r.{ ] [ S.#.[ = r.$.{ ] 9.r.{ ] 5.e.{ [ ] = # $ - ] & # * $.D.D.D.D.K.).}.|. X",
"#X#X#X#X_.).I.D.D.D.D.D.D.D.r.e.D.D.t.e.D.D.D.e.r.D.F.r.r.D.D.=.e.D.D.r.e.t.D.F.e.r.D.D.e.q.e.e.e.e.e.r.e.e.D.D.D.D.D.K.)._. X&X",
":X#X#X|.).).H.D.D.D.D.D.D.t.-.7.D.D.D.D.D.S.w.I t.D.D.D.D.D.w.6.6.D.D.D.D.D.t.t.P t.D.D.D.D.D.D.D.G.D.K.F.G.D.D.D.D.D.H.Q.Q.|.|.",
"&X#X<X}.Q.Q.D.D.D.D.D.D.1.s g p *.D.D.D.t.h i R H D.D.D.D.1.d d s *.D.D.D.t.y u R D A.D.D.D.D.D.D.D.G.D.H.D.D.D.D.D.D.D.T.).}. X",
"#X#X#X#X).).H.D.=.&.D.q.9 / Q < 0.1.S.F.T d ) 2 q w.7.D.t.9 ^ ~ > 7.T t.D.-.0 _ u 9 0.7.F.D.D.D.D.D.D.D.D.D.D.D.D.D.D.H.Q.T. X&X",
"#X:X&X#X|.Q.I.D.=.D.=.0.g p g s E ! L F.K R s 2 R Q R 6.w.g p f p E ^ L t.P R s 0 R Q R 1.D.D.D.D.F.D.D.D.D.D.D.D.D.D.K.).}.*X|.",
"#X#X#X#X].).U.D.D.D.D.D.D 6 , 2 E E 4 y.w.w 6 : p ^ d K G.H n , 2 E E u y.q.w 6 : 0 ^ f t G.D.D.D.D.D.D.D.D.D.D.D.D.D.I.Q.}. X&X",
"#X|. X#X_.).).D.D.D.D.D.V Z   6 j 3 0 S $.x x . r 0 s 7 %.A m   6 g 0 s C =.z c . q 0 a 9 +.D.F.D.D.D.D.D.D.D.D.D.D.D.Q.).Q.&X X",
"|.#X$X$X_.).Q.D.D.D.D.D.*.x m O.O l C z r...k X.S . M B Z =.b z O.O l C z %.O.X X.C . M V b D.D.D.D.D.D.D.D.D.D.*.D.D.Y.).).$X$X",
"|.#X|.$X|.).K.D.D.D.D.D.D.D.m z x z c +.D.D.$.c l b c m A.D.S.B c v x m ..D.D.q.z z v x m r.D.D.D.D.D.D.D.D.D.&.=.=.=.K.).}.$X$X",
"&X$X$X$X_._.P.D.D.D.D.D.D.D.F.S.D.G.D.D.D.D.D.S.D.D.D.D.D.D.D.S.D.D.D.D.D.D.D.D.F.D.D.D.D.D.D.D.D.D.D.D.D.D.D.D.D.D.D.H.).Q.|.#X",
":X#X$X}.).Q.D.D.D.D.D.D.t.T t t A.D.D.D.D.7.U s 8.D.D.D.D.S.T L t D.D.D.D.D.8.T s 7.D.D.D.D.D.D.=.D.D.D.D.D.D.D.D.D.D.D.Y.).'.|.",
"#X#X:X X_.).D.D.D.=.D.D.Y ~ f 2 =.D.D.D.w.j W s H D.D.D.D.I ! h 1 =.D.D.D.t.d W s D D.D.D.D.=.=.=.=.=.D.D.D.D.D.D.D.D.F.Y.).|.#X",
"#X:X&X#X_.).K.D.&.=.A.5.0 E W 2 I a 8.D.K a / p a I P S.w.1 E ! 2 L h 6.D.U p ( s i I t S.D.D.D.D.F.D.D.D.D.D.D.D.D.D.K.)._.#X#X",
"$X&X#X#X|.).I.D.D.D.D.w.h 0 i i W ( a t.T g 0 < d ) E P t.h 3 i 2 W / a w.1.d 0 < d ( E K A.D.D.D.F.D.G.G.D.D.D.D.D.D.H.).}.#X#X",
"#X|.#X#X_.Q.Q.D.D.D.D.D.n C o 3 E d s y.%.n M ; g E j K D.C S o 1 R f s y.q.n m ; d E j L G.D.D.D.D.K.H.K.I.D.D.D.D.F.T.).).#X#X",
"#X|.#X#XQ._.).D.D.D.D.D.+.l   S 0 5 8 b %.x X m D , 0 6 ..+.l   C 9 5 9 c %.c l c D 5 9 6 Z F.D.F.D.G.H.D.D.D.D.=.D.D.Q._.T. X#X",
"}.#X#X#X'.).U.D.D.D.D.D.D.O.x X.k k ..c A.=.c ..c k v Z X.=.+.x X.k k ..x =.=.c ..b k x Z A F.D.D.D.D.D.D.D.F.=.&.D.=.I.).'.#X#X",
"#X#X#X#X}._.I.D.D.D.D.D.D.D.o.@ B X.A =.D.D.D.A ..+...+.D.D.D.%...O.O.A =.D.F.F.A X.+.A X.D.D.D.D.D.D.D.D.D.D.=.D.=.F.H.).).#X#X",
">X#X#X#XQ._.H.D.D.D.D.D.5.4.4.C.m.2.4.5.D.D.D.D.D.D.F.D.D.D.D.D.H.D.K.G.H.D.=.=.D.F.D.F.D.D.D.D.=.H.D.I.D.H.D.D.D.D.D.H.).).|.|.",
"#X#X;X|.Q.Q.D.D.D.D.D.D.J Z.Z.B.b.Z.Z.G D.D.D.D.D.D.D.D.D.D.D.D.D.H.D.H.D.D.G.F.D.D.D.D.D.D.D.F.F.F.H.F.H.D.D.D.D.D.D.D.T.).}.|.",
"#X#X&X X).).F.D.=.&.D.=.G 2.V.V.Z.B.2.N D.D.A.&.D.=.D.D.D.D.D.D.D.D.D.D.D.D.=.=.=.D.=.D.D.D.D.D.D.D.F.=.D.D.D.D.D.D.D.G.Q.). X#X",
"#X:X%X#X}.).I.D.*.D.=.=.G U u.2.u.u.U N D.D.=.A.=.D.D.D.D.D.D.D.D.D.D.D.D.G.D.=.=.=.=.D.F.D.D.D.D.D.F.=.D.D.D.D.D.D.D.K.)._.&X#X",
"#X#X#X#X}.).I.D.D.D.D.S.G B.V.V.V.B.V.N D.D.D.D.D.D.D.D.D.D.D.D.D.D.D.D.D.D.D.D.D.D.D.D.D.D.D.D.D.D.D.D.D.D.D.D.D.D.D.I.).}.#X#X",
"#X|. X#X)._.).D.D.D.D.D.$.H H H D H F #.D.D.D.D.D.D.D.D.D.D.D.D.D.D.D.D.D.D.D.D.D.D.D.D.F.D.D.D.D.D.D.D.D.D.D.D.D.D.D.Q.).). X#X",
" X%X#X#X_.).).D.D.D.D.D.D.9.' 1.e - $.D.D.D.D.D.D.D.D.D.D.D.D.D.D.D.D.D.D.D.D.D.D.D.D.D.D.D.D.D.D.D.D.D.D.D.D.D.=.D.D.T.).).#X#X",
"}.#X#X#X|.Q.I.D.D.D.D.D.t.9.] $ $ - %.D.D.D.D.D.D.D.D.D.D.D.D.D.D.D.D.D.D.D.D.D.D.D.F.D.D.D.D.D.D.D.D.D.D.D.=.=.=.=.=.H.).}.#X#X",
"#X#X#X#X X_.U.D.H.I.K.D.D.F.F.t.D.I.I.H.D.D.D.D.D.F.P.K.D.D.D.D.D.D.I.I.G.D.D.D.D.D.G.I.K.D.D.D.D.D.D.I.I.H.D.H.K.H.D.U._.|.#X#X",
":X%X&X#X#X}.).).)._.).Q.(.K.Y.Q.).Q._.Q.Q.U.I.Q.Q._._._.Q.Q.K.Y.Q.Q.).).Q.).U.I.).Q.).)._.).Q.I.T.).)._.).).Q._.)._.Q._._.#X#X}.",
"#X#X:X#X X X X).).Q.)._.Q.).Q._._.Q.Q._.Q._.Q.)._._.Q.Q.Q.Q.)._._.).Q.).).Q._._.Q._.).).Q.Q.Q._.).).)._.Q._.)._.Q.)._.|. X&X#X#X",
"#X&X&X#X#X#X#X#X|.|.|.#X].).].|.#X}.|. X X_.).}.$X|.|.|.#X}.Q.].|.#X|.|. X|.}.Q.|.#X X}.|.#X}.Q.). X X|.}. X#X X}.|.#X#X#X#X#X#X",
"#X*X&X X#X#X#X#X#X#X#X#X#X#X#X#X#X#X#X#X#X%X#X#X@X$X$X@X#X#X#X#X#X#X#X X#X X X#X#X#X#X#X#X#X#X#X&X X&X X X#X#X#X#X#X#X#X#X#X#X#X",
"#X#X#X#X<X#X#X#X|.$X#X#X&X;X#X#X X X X X#X>X#X#X#X}.#X X#X*X:X#X#X|. X#X#X#X,X#X#X#X|.#X X#X#X;X#X#X X X#X X%X>X#X#X#X}.&X X%X X",
"#X|.#X#X#X#X<X#X$X$X}.#X#X#X#X:X#X#X X X#X#X#X,X#X#X#X|.#X#X#X#X,X#X#X X|.#X#X#X,X#X#X#X|.#X#X#X#X>X X X X X#X#X X;X&X&X X|.%X%X",
"}.#X#X#X#X#X#X#X}.$X$X#X#X#X#X#X#X}.#X#X#X#X#X#X#X X X#X#X#X#X#X#X#X|.#X#X#X#X#X#X#X|. X#X#X#X#X#X#X#X X#X#X#X#X&X#X#X X X#X X%X",
"$X#X#X#X#X&X>X#X$X$X@X#X#X#X<X#X*X X#X#X#X#X#X,X#X X#X#X#X#X#X,X#X#X X#X#X#X#X#X>X#X#X#X#X#X#X#X,X#X#X X#X#X#X#X#X>X#X X X X%X X",
";X#X#X X|.#X#X#X;X#X#X#X|.$X#X#X#X;X#X#X X X#X#X#X*X*X#X#X|.*X#X#X#X;X#X#X#X X#X#X#X*X%X#X#X X#X#X#X#X;X#X#X#X X#X#X&X&X&X#X#X X",
"&X#X&X#X#X#X|.#X&X#X=X$X|.#X}.#X#X*X#X*X#X X#X}.#X*X#X&X*X X X}.#X#X*X#X;X X X#X|.#X%X*X%X#X X#X|. X#X*X#X&X#X X#X}.#X&X&X&X&X X",
"#X#X;X#X|.#X#X#X#X#X=X&X#X#X#X#X#X#X#X:X#X X#X#X#X#X#X&X*X X X#X#X#X#X#X;X#X X#X#X#X#X#X&X&X#X#X#X#X#X#X#X;X X X#X#X#X#X#X&X&X#X",
"#X:X&X#X|.#X#X#X#X#X:X#X#X|.#X#X#X#X;X#X X X#X#X#X#X*X>X*X X|.#X#X#X#X;X*X#X|.#X#X#X#X#X>X#X X X#X#X#X#X&X:X X X#X#X#X#X#X>X#X#X",
"#X#X#X#X#X#X#X#X#X#X#X#X#X#X#X#X#X#X#X#X#X#X#X#X#X#X#X#X#X#X#X#X#X#X#X#X#X#X#X#X#X#X#X#X#X#X#X#X#X#X#X#X#X#X#X#X#X#X#X#X#X#X#X#X"
};
