/* XPM */
static char *e9055cf914324276ce161b68645be955n6vkegqlCOHLgG2h[] = {
/* columns rows colors chars-per-pixel */
"64 64 256 2 ",
"   c #383433",
".  c #3B3228",
"X  c #371D17",
"o  c #500800",
"O  c #571100",
"+  c #6C1B00",
"@  c #7B2A00",
"#  c #7A2600",
"$  c #7C3C00",
"%  c #702A05",
"&  c #4D362F",
"*  c #67372F",
"=  c #4B2B1A",
"-  c #314E31",
";  c #14712F",
":  c #316B32",
">  c #295215",
",  c #7F4300",
"<  c #7F4A00",
"1  c #7F5700",
"2  c #714712",
"3  c #7E6A05",
"4  c #5A4628",
"5  c #514834",
"6  c #78463A",
"7  c #6B4E30",
"8  c #716E32",
"9  c #456C21",
"0  c #38334E",
"q  c #333B70",
"w  c #492E5A",
"e  c #4B315B",
"r  c #52315A",
"t  c #4C344C",
"y  c #633B64",
"u  c #6A3655",
"i  c #3B4645",
"p  c #3C4869",
"a  c #296153",
"s  c #584A46",
"d  c #4E4D50",
"f  c #71534D",
"g  c #4B6C50",
"h  c #78625A",
"j  c #736B4B",
"k  c #555370",
"l  c #67566D",
"z  c #705570",
"x  c #566271",
"c  c #78676A",
"v  c #6C6A70",
"b  c #852B00",
"n  c #942C00",
"m  c #9A2E00",
"M  c #833500",
"N  c #823B00",
"B  c #8C3700",
"V  c #9D3200",
"C  c #943600",
"Z  c #8E301D",
"A  c #A53B00",
"S  c #A53800",
"D  c #8B3926",
"F  c #D52C1F",
"G  c #844500",
"H  c #924600",
"J  c #934B00",
"K  c #9C4600",
"L  c #935600",
"P  c #8B5600",
"I  c #AB4200",
"U  c #B74800",
"Y  c #BC5D00",
"T  c #BA5506",
"R  c #BC5912",
"E  c #BD6402",
"W  c #B56A15",
"Q  c #864B3E",
"!  c #905037",
"~  c #AF4E32",
"^  c #8B6F39",
"/  c #B9773A",
"(  c #B26C2C",
")  c #926C0E",
"_  c #C45A00",
"`  c #C65900",
"'  c #C05408",
"]  c #C96501",
"[  c #DA6C00",
"{  c #CB7702",
"}  c #DC7300",
"|  c #D57C00",
" . c #DC7B00",
".. c #C47514",
"X. c #C37B3B",
"o. c #C46F2A",
"O. c #D66D20",
"+. c #874E42",
"@. c #8C5244",
"#. c #865449",
"$. c #955647",
"%. c #945658",
"&. c #AB584F",
"*. c #946C53",
"=. c #A56950",
"-. c #985567",
";. c #A95B67",
":. c #88736B",
">. c #97766B",
",. c #887875",
"<. c #8E756E",
"1. c #AC6067",
"2. c #AE736F",
"3. c #CF5849",
"4. c #EC6F53",
"5. c #DE6B61",
"6. c #BF3853",
"7. c #0E8E35",
"8. c #189539",
"9. c #759637",
"0. c #76A43A",
"q. c #55993B",
"w. c #0AB744",
"e. c #37B14C",
"r. c #228B67",
"t. c #56AF54",
"y. c #71AA4D",
"u. c #768F74",
"i. c #6EB665",
"p. c #669848",
"a. c #09D64E",
"s. c #1EDE58",
"d. c #56CB6D",
"f. c #8E8E37",
"g. c #AC9234",
"h. c #B2A730",
"j. c #A09320",
"k. c #D68500",
"l. c #DB8200",
"z. c #D88B00",
"x. c #D79600",
"c. c #CA8403",
"v. c #E18B00",
"b. c #D8A400",
"n. c #D5B20D",
"m. c #C8823E",
"M. c #C9B029",
"N. c #E2A700",
"B. c #DAC607",
"V. c #E5C617",
"C. c #8B954E",
"Z. c #B0894C",
"A. c #90A751",
"S. c #9A8479",
"D. c #8B9B6A",
"F. c #AE8B74",
"G. c #95A76C",
"H. c #AEAD69",
"J. c #CA8542",
"K. c #D58B47",
"L. c #D19351",
"P. c #DB9B6E",
"I. c #CA8E6E",
"U. c #D0AF72",
"Y. c #DBA05A",
"T. c #F4CC7F",
"R. c #355AA0",
"E. c #49508D",
"W. c #6A6E8C",
"Q. c #536FB4",
"!. c #7076AE",
"~. c #5E60A0",
"^. c #285ECB",
"/. c #3564C9",
"(. c #3967D2",
"). c #3168D4",
"_. c #2D68E0",
"`. c #306BE0",
"'. c #3370E2",
"]. c #3970E4",
"[. c #3470E8",
"{. c #3971E8",
"}. c #3B78E9",
"|. c #3E79F0",
" X c #5371D3",
".X c #6771D5",
"XX c #4073E8",
"oX c #4078E9",
"OX c #4377E6",
"+X c #407AF0",
"@X c #5877E4",
"#X c #996999",
"$X c #D37B96",
"%X c #338AAD",
"&X c #78B789",
"*X c #7087B5",
"=X c #66949D",
"-X c #3B85D2",
";X c #5B83D3",
":X c #6C90D4",
">X c #4781ED",
",X c #4580F0",
"<X c #4A82F2",
"1X c #4E88F7",
"2X c #568CF7",
"3X c #5C91F4",
"4X c #6898F7",
"5X c #6E91E7",
"6X c #77A4F2",
"7X c #7FC88E",
"8X c #8F8C8B",
"9X c #A7928D",
"0X c #8CB191",
"qX c #B5AB96",
"wX c #8E92A9",
"eX c #AB97AC",
"rX c #9BA6AD",
"tX c #A8AAA7",
"yX c #AEB2B3",
"uX c #D2AA9D",
"iX c #B7C2BB",
"pX c #9ACCA1",
"aX c #E2D096",
"sX c #95ADD1",
"dX c #AAB7CD",
"fX c #96BAF7",
"gX c #8AAFEE",
"hX c #93A9DB",
"jX c #B5C7CF",
"kX c #9DC2F8",
"lX c #9DC0ED",
"zX c #A7C9F8",
"xX c #B9D7F7",
"cX c #B2CCE8",
"vX c #9EC6C7",
"bX c #D9DCD8",
"nX c #C9D0CC",
"mX c #DDE2DC",
"MX c #CBE3D2",
"NX c #C8D9E7",
"BX c #C2DEF7",
"VX c #CFD9E3",
"CX c #D7E7E8",
"ZX c #C5E3F8",
"AX c #CBE7F7",
"SX c #D2EDF8",
"DX c #D5EBF4",
"FX c #D6F2F8",
"GX c #DAF5F8",
"HX c #DDF8F8",
"JX c #DBF4F6",
"KX c #CAE4EA",
"LX c #E6E9E6",
"PX c #E0F8F8",
"IX c #E9F0EF",
"UX c #E5D9D2",
/* pixels */
"% @ G L J J P P L L L P L L J J J J J J J J J J J J J J J J J J H H J H J J J H H H H H H J H H J J L L P L L J J J J H B @ % + ",
"@ K c.b.x.z.x.x.b.b.b.b.z.z.z.z.k.k.k.k.z.z.k.k.k.k.k.k.l.| | | k.k.| | | | | | | } | | | k. .{ | z.c.x.x.b.x.z.c.z.| [ ] I + O ",
"B { E ) J J L L ) L L L J J J L H K H C J J J J J J J J K J H H H J H H H C H H C H H H H J H H H J J P P P J H P H G B I ` $ o ",
"H ] K B # b b n C B K C C B B B B B B n b B B n B b b b b b b b b b b b b b # b # b b # # b # # # b # # # b b # + + + # U [ $ o ",
"B ` C V = w w r r r r r r r r r r r r r r w r r r r r r r r r w t w r w r e e e r e e e w w w w e e w w w r w w w 0 w Z [ v.N o ",
"B T C U y R.^.^.^.^./.^./././././././.(.(.(.(.(.(.(.(.(.(.).(./.~.~././.(.(.(.).(.(.).(.(./.(.(.(.(./././.^./.^.^.^.Q.&.{ z.G o ",
"M U A _ y ^._._.).`.`.`.'.].'.'._.XX].XXXXXXXXXXXXXXXXoXoXoXoX X#X~. XXXoXoXoXoXoX}.XXXXXXXXXXXX{.XXXX].].].].].].(. X1.] v.G o ",
"b U A _ y ^._._.`.`.`.).].'.].].].].XXXXXXXXXXXXXXXXXXoXoXoXOX!.6.6..XOXoXoXoXoXXXXXXXXXXXXXXXXXXXXX{.{.{.].].].`.]..X1.] x.G o ",
"b U S ' y ^._._._.`.'.'.].].].{.{.{.XXXXXXXXXXXXXXXXXXXXXXXX X~.6.F #X.X}.OX}.OXOXOX}.oXOX}.XXXXXXXXXX{.{.{.{.{.{.]. X;.` v.G o ",
"b U S ' y ^._.`.`.`.'.`.].{.{.{.].{.XXXXXXXX}.OXXXXXXXXXXX@X~.6.F F 6.#X XOXOX}.}.oX}.OXoXoXXXoXXXXXXX{.{.[.[.{.{.]..X1.` l.N o ",
"@ A S U y ^._.`.`.`.`.{.{.{.{.{.{.XXXXXXXXoXOXoXXXXXXXXXXX.X-.F F F 6.$X.XXX}.OXoXOXoXoXOX}.}.oXXXOXXXXX{.{.{.{.{.]..X;.]  .G o ",
"M A S U y ^.`.`.`.`.{.{.{.[.[.{.{.{.oXoXXXoX}.oXXXXXXXXX(.E.* % + Z Z 6.E. XOX}.oX}.oXOXoXoXOXOXoXoXXXXX{.{.{.{.[.{. X;.`  .N o ",
"b S A U y ^.`.`.`.`.[.[.[.{.{.{.}.}.}.}.OXoXoXoXXXOXoXXXR.0 X 4 * * 4 & t R.}.OXOX}.OX}.oXOXoXoXOXoXOXoXoX{.{.{.{.{..X1.`  .N o ",
"@ S S ' k ^.`.`.[.[.{.[.{.{.{.{.}.OXOXOX}.}.OXoX+XOXOXXX/.q 0 4 6 *.#.l R.(.OXOXOXoXoXoXoX}.oXoX}.oXOX}.}.}.{.{.{.{. X1.`  .N o ",
"b S S U y ^._.[.[.[.{.{.{.[.}.}.}.}.OXoXoXOXoXoXoX}.OXoXOX XE.s Z.L.I.!. X}.OX}.}.oXOXOXoXoXOXoX}.OXoXoX}.}.}.{.{.{..X;.`  .N o ",
"# V S U y ).'.[.[.[.{.{.[.}.}.}.}.oXoXoX}.oXoX}.OXOXOXOXOXQ.E.+.Z.Y.P.#X.X@XOXOXoXoX}.oXOX}.oX}.oXoX}.OXoX}.}.}.{.[..X1._ } N o ",
"# m V ' y ).[.[.[.{.{.{.}.}.oXoXoXoXXXXXoX+X+XXXoXoXXX/.E.z %.6.3.4.P.5.$XeX.XoX+XoXoXoXoX}.oXoXoXoXoXoXoXoXoX}.}.{. X1.` } M o ",
"# m V ' y ^.[.[.[.}.{.[.}.}.}.oXoXoX+XXX+X+X+XoXoX+XXXp   * D ~ F 3.4.4.4.5.#X@X+X+X+XoXoXoX+X+X+X+XXXoXoXXXoXoX}.}..X1.` } N o ",
"@ V S U y ).[.[.[.[.[.}.}.oXoXoXoX+X+X+X+XXX|.+XoX+X(.q o = * Z ! ~ 3.3.4.5.#X.XoXOXoXoX+X+X+X+X+X+X+X+X+X+XoX}.}.}..X;.` } N o ",
"@ V V U y _.{.{.}.}.}.}.}.oXoX+X+X+X+X|.+X+X+X+X}.OXOXq X X * * 2 6 D ! &.3.2.!.*X.X@XXX+X+X+X+XXX+X+X+X+X+XoXoXOX}. X;.` } M o ",
"@ V V U y ).}.}.}.}.}.}.}.}.|.|.+X+X|.|.+X+X+X+X,X}.}.R.  . 4 ^ =./ ^ 7 7 Z.U.U.F.,. XOX+X+X,X|.+X+X|.|.|.|.+X+XoX}..X-.` } N o ",
"@ V V U y }.,X}.}.|.|.}.+X}.|.|.+X|.|.,X+X+X,X<X,X>X>X(.p 4 7 *.L.H.^ 4 4 #.S.F.S.W. X>X<X+X,X,X,X|.,X|.+X+X|.|.+X}.@X;.' } N o ",
"@ V V U l 5X4X2X<X+X|.+X+X+X}.}.+X+X+X,X,X,X,X,X>XOX<X XE.5 8 ^ Z.Z.8 * 5 x Q. X XOX>X>X<X<X+X1X,X+X,X,X+X|.|.|.+X+X.X;._ } N o ",
"@ m m U c lXkXgX4X1X+X+X+X+X,X,X,X,X<X+X<X,X<X>X X XwX:Xx 5 4 7 7 7 4 4 h Q.;X>X>X>X>X>X<X+X<X,X,X<X,X,X,X,X|.,X+X+X@X;._ } N o ",
"# V V I ,.KXZXzXgX6X>X,XOX>X,X>X,X>X>X,X+X<X+XOXE.x S.c d & 4 4 7 4 4 2 u. X<X<X,X,X,X,X,X,X,X,X@X+X+X<X,X,X,X,X+X+X.X;.' } M o ",
"@ V V U c KXFXKXsX%X%X%X%X%X%X-X>X>X,X<X1X1X2X@XW.x v j d 5 4 7 8 7 7 7 :.;X,X<X,X1X1X1X1X1X1X1X1X1X1X+X<X,X,X+X1X3X5X2.' } N o ",
"# n V U :.KXJXjX=X: ; 7.8.8.8.%X%X>X1X1X2X4X4X:XW.x d d d & 7 j ^ ^ *.Z.9X;X<X<X1X1X1X3X3X3X3X4X4X2X1X1X1X1X1X2X4XgXgX2.` } N o ",
"# n n U c NXKXdXh > > > > 9 9 : R.3X2X4X4XgXgX:X!.W.x k i 5 7 Z.Z.U.U.U.qX5X1X1X1X1X4X6X4X6X6XgX6X4X3X3X2X2X1X4XfXzXcX5.` } N o ",
"# m V A :.cXAXxXwXd & . = 4 5 x *X6X6X6XkXkXlXfXsXsX*Xp i & 7 Z.T.T.T.aXuX5X2X2X1X3X6X6XkXkXkXkXfXfX6X6X6X6X4XgXzXZXVXI.]  .N o ",
"# n V A :.cXAXAXcXyX=Xv x x =X:XlXzXzXkXcXlXxXxXxXcXhX!.Q.d 7 Z.Y.T.aXaXiX6X1X2X3X4XfXzXxXxXZXxXxXzXzXzXkXgXgXfXZXFXCXP.`  .G o ",
"@ n m U c cXAXSXJXFXMXjXjXjXlXlXxXZXZXBXcXrXKXSXSXxXsXhX!.c *.F.U.T.aXaXqX:X:X;X4XfXzXZXSXSXSXAXZXBXBXZXBXzXkXxXFXHXLXP.]  .N o ",
"@ n m I c cXAXSXJXHXJXJXHXJXKXxXAXFXHXSXxXyXKXAXvXwX=Xc c S.S.S.S.F.I.9X8X8X#XwX:X6XxXSXFXFXHXFXSXAXFXGXFXZXBXSXHXPXLXP.]  .N o ",
"# n m U c cXAXSXFXHXPXPXPXPXGXFXHXPXHXGXKXdXCXNXW.    s h h c h :.:.:.:.:.<.S.S.wXhXxXSXFXPXHXHXFXFXFXHXGXGXFXGXPXPXLXP.]  .N o ",
"# n n A v cXZXSXSXFXHXPXPXPXPXPXPXHXHXHXKXdXKXjXv s 5 s h h h c :.>.S.<.:.<.S.S.9XhXxXBXFXGXFXHXHXHXHXHXPXPXPXPXPXPXLXP.] } N o ",
"# m m A c cXBXAXSXSXGXHXPXGXPXPXPXPXHXHXCXyXdXtXS.c f d h h f :.S.S.9XS.<.>.F.9X9XwXsXcXAXFXGXHXHXPXHXHXPXPXPXPXPXPXLXP.[ [ M o ",
"@ m m S v cXBXAXSXSXFXGXJXGXGXGXHXHXHXHXSXrX=XS.S.S.j d h d s f <.>.S.S.<.,.S.S.S.<.,.eXNXFXHXHXPXPXPXPXPXGXGXFXFXPXCXP.` [ M o ",
"@ m m I c cXZXSXSXSXSXFXSXFXFXGXHXHXHXHXCXrXl <.S.>.j f #.f & s h c :.>.>.>.>.>.>.-.<.9XNXDXGXGXPXPXPXHXHXHXGXJXFXFXLXP.] [ B o ",
"# V V I z cXZXAXAXZXAXSXSXJXFXGXHXHXJXKXjXW.5 <.S.*.#.f $.@.f f h h *.>.*.*.=.=.=.=.=.>.eXnXAXGXHXHXHXHXGXFXFXFXSXFXCXP.] [ B o ",
"# n m U c cXBXBXBXBXBXSXSXFXFXFXJXDXCXyXv & & *.%.+.Q +.@.$.+.#.#.#.%.*.*.$.%.=.$.=.&.$.-.9XjXDXGXHXHXHXFXFXFXFXFXSXVXP.` [ M o ",
"# m m A z lXxXBXBXBXBXAXSXFXGXFXDXNXnX=Xs * 6 #.@.Q Q 6 f 6 6 f 7 6 6 6 +.+.+.@.$.$.@.$.$.%.9XnXFXFXFXFXFXFXFXGXSXAXVXP.] } M o ",
"# n m A z hXxXxXxXxXZXZXAXFXSXNXdXtX#Xf * @.@.$.#.! +.6 Q 6 7 & * * +.+.+.6 6 $.$.$.6 6 @.$.-.eXVXDXDXDXDXDXSXFXSXAXNXP.` [ M o ",
"@ n m A l gXzXxXxXxXBXZXZXxXdX9X:.#.+.+.$.$.$.@.6 @.@.Q 6 7 6 4 & & #.$.$.6 6 +.$.@.* & * 6 %.qXbXVXCXLXIXDXDXDXSXZXNXP.] [ M o ",
"@ n n I c gXkXzXxXxXxXBXxXrXc f +.@.@.@.@.@.! * 6 Q ! @.#.h f s . & +.$.@.Q 6 Q @.! * = & h qXnXbXbXbXIXIXbXcXBXBXBXNXI.` [ M o ",
"@ n n I l gXkXzXzXzXxXxXcX*Xr 6 @.$.@.@.! @.Q * 6 ! #.#.*.<.>.f & & +.$.@.6 6 +.@.Q & * :.qXnXbXmXLXLXIXIXbXyXdXcXcXcX5.` } N o ",
"@ m n I l gXfXfXkXkXzXzXlX*Xt Q %.#.#.#.@.Q * 4 8 ^ #.$.>.S.S.s . & f ! @.6 6 f +.+.7 ,.yXnXmXmXLXLXLXLXIXmXtX0XwXsXdX2.` [ B o ",
"@ m n A l hXfXfXfXfXkXkXgXW.t f #.#.+.+.Q * 5 8.e.q.j *.F.S.:.s   & 7 6 6 6 6 f +.#.,.yXnXbXUXmXLXLXLXmXIXmXuXtX9XeXdX1.' [ M o ",
"# m n A l hXfXfXfXgXfXgX:Xx t f f #.#.#.6 4 ; w.a.s.t.C.F.S.f     & * * * 6 u f -.9XyXbXUXmXmXmXLXIXLXUXMXaXT.U.H.H.eX-.` } N o ",
"# m B I l gXkXkXfXfXfXcXyXv s f z %.%.f 5 - 7.w.a.a.d.u.9X,.5 .   & & 6 f f l c 9XnXmXbXLXLXLXLXLXmXMXuXqXU.h.A.f.D.rX%.' [ N o ",
"@ V n I l 6XfXzXzXcXNXnXnXwXk z v W.W.l   ; 7.a.a.a.s.t.8Xh 5 . . & * f f W.W.rXiXbXmXmXLXIXIXLXnXpXH.i.y.f.f.^ f.F.dX;.'  .N o ",
"@ V n A l :XfXcXNXmXbXbXdX:X/.Q.Q.-X XR.a ; 7.w.a.a.a.d.i.x q 0 0 0 t f z :XsXnXUXmXUXmXLXIXLXnX0XG.i.9.g.m.m.m.( F.eX-.`  .G o ",
"# V B S k 6XgXyXnXUXmXbXcXgX6X6X4X:X-X/.q ; 7.w.a.a.a.s.=X;X=XW.v v -.,.8XdXmXmXbXbXUXmXLXIXnX0XD.G.C.g.L.Y.K.K.X.2.yX;._ l.G o ",
"b V n A l hX6XW.8XdXmXmXnXjXjXcXcXsXW.x a ; 7.7.w.w.s.7XvXjXfXdX$XuXuXuXnXbXUXLXmXmXmXLXLXMX&Xu.qXZ.J.X.K.K.K.K.m.I.eX-.`  .G o ",
"M A n K l gX5Xk d u.iXnXiXiXyXiXjX8Xx d 0 - > ; : g =XyXiXiXiXqX1.5.UXUXnXbXnXnXbXLXUXmXjX7Xt.D.G.Z.J.X.K.Y.K.K.K.P.eX-._  .G o ",
"b I n I l :X:Xp   h tXyXtX8X8XtXrXv d - d i   5 8 u.rXyXtX0Xt.j 3.5.5.$XiXiXyXiXiXMXMXpX&Xp.u.A.Z.J.K.K.Y.K.K.K.X.P.eX%._ l.G o ",
"M I b C k :X;Xp   d 9XtXtX8XD.v u.: : - - - - 8 G.G.7X&Xi.g ; : ! 3.4.5.0X0X0XpX0XpXd.i.y.y.A.C.Z.X.J.K.K.X.K.K.K.I.eX&.` v.G o ",
"M U n V k 5X;Xd   x rXtXtXu.g g g 5 g : 9 9 9.C.H.y.e.s.e.q.) j.j.( Z.A.e.e.t.t.t.i.i.A.H.A.y.f.g.X.K.K.o.X.X.K.K.2.eX%.] z.G o ",
"B U n A k 5X;Xp   g tXtXeXv - ; : 8 f.8 f.j.M.j.y.t.e.e.e.0.M.V.V.n.h.0.q.q.y.y.A.A.A.y.0.y.C./ / / K.K.X.X.m.=.J.F.#X-.` v.G o ",
"B ' B V k :X;Xp   l tXtX8Xd . > : ) b.j.j.h.g.f.q.q.9.p.q.0.f.M.M.M.M.h.A.f.A.t.t.0.t.0.C.M.X.X.X./ m.X./ X.g.( o.I.9X&.] v.G o ",
"B U b V f :X!.h 7 h 9X9X>.f 2 2 2 ) j.j.b.B.h.f.0.0.f.f.0.0.g.g.M.M.h.A.A.0.A.0.q.9.f.Z.m.J.X.X.X.X.( / ( ( ( ( X.2.9X&.} v.G o ",
"M U n S ~ &.=.W E ( X.o.o.W W E ] ] ] { k.c.c...c.W W ........W k.c.c.o.W W W ) W W W R ..' R R ' ' R R R R R R R R 3.O.l.b.P o ",
"M A I { z.c.c.E c.E E ] ] ] Y E E Y Y Y ] Y Y Y E E Y Y Y Y Y Y E Y Y Y E Y Y Y Y _ Y Y Y _ Y T ] E E E E E E E { { c.c.x.n.3 o ",
"# b T x.B.B.B.n.b.x.x.x.x.z.l.k.k.{ k.{ { { { | { { { { ] { {  .l.k.| l.z.z.k. .k.l.z.z.l.z.z.z.x.z.x.z.z.z.x.b.b.b.n.B.B.c.% o ",
"% O % 1 3 3 3 1 1 1 < < < , $ G , , $ $ $ $ $ , $ $ $ $ $ $ $ $ , , $ $ $ G , $ $ N , < $ < , < < < G < < < < 1 P 1 3 3 3 % o o ",
"% o o o o o o o o o o o o o o o o o o o o o o o o o o o o o o o o o o o o o o o o o o o o o o o o o o o o o o o o o o o o o o o "
};
