/* XPM */
static char *fde0de98f2174379c06691db6ad8efe7ntMhoqShBGSoxDTy[] = {
/* columns rows colors chars-per-pixel */
"77 64 186 2 ",
"   c #7B3D4F",
".  c #6A495D",
"X  c #774355",
"o  c #7E4050",
"O  c #57596E",
"+  c #4C5C7E",
"@  c #5B5E70",
"#  c #685264",
"$  c #5F6172",
"%  c #606272",
"&  c #686A78",
"*  c #6C6D78",
"=  c #716671",
"-  c #71717C",
";  c #757A7F",
":  c #AA453F",
">  c #883B48",
",  c #9A4347",
"<  c #8F4953",
"1  c #895B5C",
"2  c #945D57",
"3  c #985E55",
"4  c #AE4B43",
"5  c #BA584D",
"6  c #A05356",
"7  c #AC5552",
"8  c #A06356",
"9  c #AF6952",
"0  c #93706D",
"q  c #AC736B",
"w  c #C06056",
"e  c #C26459",
"r  c #C26C5A",
"t  c #C7715F",
"y  c #CB7664",
"u  c #CC7965",
"i  c #D17F6B",
"p  c #BD8473",
"a  c #B3867A",
"s  c #AB947E",
"d  c #D2816B",
"f  c #D5896E",
"g  c #C78A74",
"h  c #D68970",
"j  c #DC9476",
"k  c #D9997C",
"l  c #C6A07E",
"z  c #4F6489",
"x  c #58678C",
"c  c #546D93",
"v  c #5D6892",
"b  c #5A749A",
"n  c #6B7986",
"m  c #727787",
"M  c #777B86",
"N  c #7A7B83",
"B  c #6A7F9C",
"V  c #5B7AA4",
"C  c #5C7CA8",
"Z  c #607BA0",
"A  c #927982",
"S  c #698E87",
"D  c #738F89",
"F  c #778597",
"G  c #72A791",
"H  c #7FA793",
"J  c #7FAE97",
"K  c #77B898",
"L  c #7BBE9B",
"P  c #778AA8",
"I  c #658CBA",
"U  c #6991BF",
"Y  c #7EC19E",
"T  c #6081C5",
"R  c #6790C1",
"E  c #6B94C3",
"W  c #759CC6",
"Q  c #648EDD",
"!  c #7BA1C9",
"~  c #76A7DC",
"^  c #7CAFE4",
"/  c #888483",
"(  c #938180",
")  c #979084",
"_  c #848895",
"`  c #838D9D",
"'  c #88929D",
"]  c #91949E",
"[  c #B59685",
"{  c #81AF97",
"}  c #9FA49B",
"|  c #82B199",
" . c #83BC9E",
".. c #BEA688",
"X. c #A3A69D",
"o. c #A5A89E",
"O. c #8A93A2",
"+. c #8696AB",
"@. c #969BA6",
"#. c #949DAB",
"$. c #8399B6",
"%. c #979CB0",
"&. c #98A1A5",
"*. c #93A0AE",
"=. c #8DB8A8",
"-. c #96BCAB",
";. c #8DA5BD",
":. c #9AA4B2",
">. c #9FA8B6",
",. c #ACACA6",
"<. c #AAB2A2",
"1. c #B1B4A2",
"2. c #A6A7B2",
"3. c #A2A9B4",
"4. c #A2ACBB",
"5. c #ADAFB9",
"6. c #A4B0BF",
"7. c #B5BFBE",
"8. c #C59E81",
"9. c #CCA983",
"0. c #E2AD82",
"q. c #E5B385",
"w. c #E3BA89",
"e. c #E8BA88",
"r. c #80C29F",
"t. c #85C6A3",
"y. c #87C8A5",
"u. c #89C8A6",
"i. c #8DCCAB",
"p. c #92CFAE",
"a. c #95D0B1",
"s. c #9AD4B5",
"d. c #9ED7B9",
"f. c #9FD8BA",
"g. c #A6C3B6",
"h. c #ADC9BA",
"j. c #A1D6BE",
"k. c #A3DABE",
"l. c #ECC48E",
"z. c #82A3CE",
"x. c #90A9C0",
"c. c #A6B1C1",
"v. c #ABB7C6",
"b. c #ADB8C7",
"n. c #AEBAC9",
"m. c #B4B8C4",
"M. c #B2BDCC",
"N. c #8CBDEE",
"B. c #91B7E8",
"V. c #B4C0CE",
"C. c #A5D7C0",
"Z. c #A6DBC1",
"A. c #AADCC3",
"S. c #B1DBC7",
"D. c #B7D8C6",
"F. c #B3DEC9",
"G. c #B7C2D2",
"H. c #BAC6D5",
"J. c #BCC9D7",
"K. c #BECAD9",
"L. c #B7E0CB",
"P. c #BCE3CE",
"I. c #BFE5D0",
"U. c #98C5F1",
"Y. c #ABC8E1",
"T. c #C1CDDC",
"R. c #CACFD9",
"E. c #C4D0DF",
"W. c #CCD2DD",
"Q. c #C2E7D2",
"!. c #C5E8D5",
"~. c #C6E8D5",
"^. c #C6E9D6",
"/. c #C8E9D7",
"(. c #C9E9D8",
"). c #CAEAD9",
"_. c #CCEBDB",
"`. c #D0ECDF",
"'. c #C6D2E1",
"]. c #CBD7E6",
"[. c #D3D9E4",
"{. c #D1DBE9",
"}. c #DDE1EB",
"|. c #E6E9F2",
" X c #EFEFF7",
".X c #F0F0F7",
/* pixels */
"A.P.A.j.A.P.I.A.A.Q.L.k.k.A.Q.P.F.F.P.A.k.Z.F.Q.F.S.F.P.Z.j.Z.F./.S.A.Q.F.C.C.Z.Q.P.A.A.!.A.f.Z.A.Q.F.F.F.Q.A.k.k.F.Q.A.A.Q.D.f.k.A.I.P.A.L.Q.A.k.k.A.~.P.",
"Q.Q.Q.I.Q.Q.Q.Q.Q.Q.Q.Q.P.!.Q.Q.Q.Q.Q.Q.P.Q.Q.Q.Q.Q.Q.Q.I.I.Q.Q.Q.Q.Q.Q.Q.Q.Q.Q.Q.~.Q.~.Q.Q.Q.Q.!.Q.Q.Q.Q.Q.Q.Q.Q.Q.Q.Q.Q.Q.Q.Q.I.Q.Q.Q.Q.I.Q.Q.Q.Q.Q.Q.Q.",
"Q.Q.~.~.Q.Q.I.Q.Q.~.Q.(.Q.Q.Q.P.Q.Q.Q.Q.(.Q.Q.Q.Q.Q.Q.Q.~.(.Q.Q.Q.Q.Q.P.Q.(.Q.Q.Q.P.Q.Q.Q.Q._.Q.Q.Q.Q.Q.Q.Q.Q.(.Q.Q.Q.Q.Q.I.Q.(.Q.Q.Q.P.Q.Q.Q.Q.).Q.Q.Q.Q.",
"~.Q.~.~.Q.~.I.Q.P.P.Q.(.Q.~.Q.Q.Q.L.Q.Q.(.Q.).Q.P.Q.F.Q.~.~.Q.(.P.Q.P.Q.Q.(.Q.~.Q.P.Q.L.Q.Q./.Q.~.Q.P.Q.L.Q.~.~.Q.(.Q.Q.I.I.Q.(.Q.!.Q.I.Q.L.Q.Q.).Q._.Q.P.",
"(.Q.Q.Q.~.(.Q.I.Q.Q.Q.Q.Q.(.~.Q.Q.Q.Q.Q.Q.Q.).Q.Q.Q.Q.Q.Q.Q.Q./.Q.I.Q.Q.Q.Q.Q.~.!.Q.Q.Q.Q.Q.Q.Q.(.Q.Q.Q.Q.Q.Q.Q.Q._.Q.Q.I.Q.Q.Q.Q./.!.Q.Q.Q.Q.Q.Q.Q.~.Q.Q.",
"}.Q.Q.Q.`.Q.Q.P.Q.Q.Q.Q.Q._.Q.P.P.Q.Q.Q.Q.).).Q.P.Q.Q.Q.Q.Q.`.Q.Q.I.Q.Q.Q.Q.I.}.~.P.P.Q.Q.Q.Q._.(.Q.P.Q.Q.Q.Q.Q.`.Q.Q.F.Q.Q.Q.Q.Q.`.Q.Q.I.Q.Q.Q.Q.).).Q.L.",
"I.Q.Q.Q.Q.Q.Q.Q.Q.Q.!.Q.Q.Q.Q.Q.Q.Q.Q.I.Q.Q.Q.Q.Q.Q.Q.Q.Q.Q.Q.Q.Q.Q.Q.Q.I.I.I.I.Q.Q.Q.Q.Q.Q.Q.Q.Q.Q.Q.Q.Q.Q.Q.Q.Q.Q.Q.Q.Q.Q.Q.Q.Q.Q.Q.Q.Q.Q.Q.Q.Q.Q.Q.Q.~.",
"L.I.P.I.P.I.Q.`.Q.Q.P.P.Q.P.!.(.).Q.Q.P.I.I.I.Q.`.Q.Q.Q.P.Q.P.Q.I.}.Q.Q.I.I.I.I.Q.Q._.Q.Q.P.Q.P.P.Q.`.Q.Q.Q.L.Q.I.Q.Q.`.Q.Q.I.I.Q.P.Q.Q.).Q.Q.I.P.Q.P.Q._.",
"Q.Q.Q.Q.P.Q.Q.Q.Q.`.Q.Q.Q.I.Q.Q.Q.Q.`.Q.Q.Q.Q.Q.Q.Q._.~.Q.Q.I.Q.I.Q.Q.`.Q.Q.Q.I.Q.Q.Q.Q._.Q.Q.Q.Q.Q.Q.Q.(.~.Q.I.I.Q.R.Q.Q._.Q.Q.Q.I.Q.Q.Q.Q._.Q.Q.Q.Q.Q.Q.",
"Q.Q.P.P.Q.Q.Q.Q.~.!.Q.L.Q.Q.Q.Q.Q.).I.Q.L.Q.Q.Q.Q.Q._.Q.I.P.Q.Q.I.Q.!.!.Q.L.Q.Q.Q.Q.Q._.Q.Q.P.Q.Q.Q.Q.Q.(.Q.P.P.Q.Q.Q.Q.Q.~.Q.P.Q.Q.Q.Q.Q./.Q.Q.L.Q.Q.Q.Q.",
"Q.Q.Q.Q.Q.Q.Q.Q.~.~.Q.Q.Q.Q.Q.Q.Q.).Q.Q.Q.Q.Q.I.D.o.,.o.o.o.o.o.} <.<.<.o.o.o.o.o.o.o.<.o.o.o.o.o.o.X.X.,.,.,.X.g.Q.Q.Q.(.Q.Q.Q.Q.Q.Q.Q.Q._.Q.Q.Q.Q.Q.Q.Q.",
"Q.Q.^._.Q.Q.P.Q.Q.Q.Q.`.Q.Q.Q.P.Q.Q.Q.Q.`.Q.D.<.9.f j j j j j j j j j j j j j j j j j j j j j j j j j j j j j e , ( -.Q.Q.Q.Q._.Q.Q.Q.P.Q.Q.Q.Q._.Q.Q.I.P.",
"_.^.Q.Q.^._.Q.Q.P.I.Q.Q.Q._.!.Q.I.P.I.Q.D.,.9.q.l.d h y y y y y y y y u u u y u u u u u u y u u y u y t u u i r 4 5 , 0 -.P.I.I.Q._./.Q.Q.P.Q.Q.Q.Q._.!.I.",
"Q.Q.Q.Q.I.I.Q.P.Q.Q.Q.Q.Q.Q.Q.P.I.Q.Q.1.g l.w.q.l.f f d d d d d d d d d d d d d d d d d d d d d d d d f i i h r 4 7 4 5 4 0 F.I.Q.Q.I.Q.P.Q.Q.Q.Q.!.Q.Q.P.",
"`.Q.Q.Q.}.I.Q.Q.Q.Q.Q.Q.Q._.Q.Q.P.P.I...k l.e.q.l.h j j j j j j j j j j j j j j j j j j j j j j j j j j j j j r 4 5 : 5 4 7 g.I.Q._.Q.Q.Q.Q.Q.Q.I._._.I.I.",
"Q.Q.Q.Q.Q.Q.Q.L.F.Q.Q.I.L.P.P.L.k.L.I...e.l.e.w.l.d j j j j j j j j j j j j j j j j j j j j j j j j j j j j j 9 4 5 4 5 4 6 g.I.L.P.Q.Q.Q.Q.Q.I.Q.Q.Q.Q./.",
"L.Q.Q.Q.P.L.k.k.Z.Z.Z.Z.Z.Z.Z.Z.A.k.k...l.l.l.k l.h d y t t y t t t t t t t t y r y r y r y r y t t t t t t h r : 5 : 5 : 7 =.k.k.Z.Z.I.I.Q.Q.I.I.I.P.I._.",
"Q.Q.I.P.Z.A.k.A.A.Z.Z.Z.Z.Z.k.f.a.f.k...k l.l.l.l.f h h h f h h h h h h h h h h h h h h h h h h h h h h h f j r 4 5 : 5 : 7 =.A.Z.k.Z.Z.A.Q.Q.Q.I./.Q.Q.Q.",
"Q.Q.Q.L.Z.i.y.a.a.u.r.p.a.p.r.y.y.y.r...k l.w.k l.h j j j j j j j j j j j j j j j j j j j j j j j j j j j j j r 4 5 : 5 : 7 G i.a.p.t.a.A.P.P.Q.P.I.Q.Q.Q.",
"Q.Q.Q.Z.k.r.y.y.r.y.y.y.y.y.y.r.r.y.y.l k e.l.l.l.d j j j j j j j j j j j j j j j j j j j j j j j j j j j j j r 4 5 : 5 : 7 G y.t.t.t.p.k.P.Q.Q.Q.~.Q.Q.Q.",
"Q.Q.P.Z.A.a.y.y.u.y.r.u.y.y.y.r.y.y.y...l.l.l.e.l.h h d d d d d i d d d d d d d d d d d d i d i d d f d d d h r : 5 : 5 : 7 G y.t.t.t.f.k.k.Q.Q._.~.Q.Q.P.",
"_.Q.L.Z.A.a.y.r.r.y.y.r.Y r.y.u.y.Y y.l k l.l.k l.f f u u u u u u u u u u u u u u u u u u u u u u u u u u t j r 4 5 : 5 : 7 G r.t.t.t.f.k.k.Q.Q.Q.Q.`.Q.Q.",
").Q.I.k.Z.u.y.r.r.u.Y Y Y Y r.r.Y y.y.l k l.l.k l.h j j j j j j j j j j j j j j j j j j j j j j j j j j j j j r 4 5 : 5 : 7 G y.t.t.r.a.A.A.Q.Q.Q.!.!.Q.L.",
").Q.P.k.Z.y.r.y.u.r.y.Y y.Y r.u.y.y.p.l k l.l.l.l.d j j j j j j j j j j j j j j j j j j j j j j j j j j j j j r 4 5 : 5 : 7 G y.t.t.t.p.A.A.Q.Q.Q.!.!.Q.Q.",
"Q.Q.A.Z.s.y.r.r.y.y.r.y.u.u.i.i.i.i.Y ..k l.l.k l.f j j j j j j j j j j j j j j j j j j j j j j j j j j j k j r 4 5 : 5 : 7 G r.t.t.t.y.k.A.P.P.I.Q.!.Q.).",
"L.Q.k.A.a.r.y.y.y.r.r.y.r.u.u.u.y.y.y...w.l.l.e.l.j d r r 5 w e e e e e e e e w e e 5 r e e e e e e e e e 5 h r 4 5 : 5 : 7 G t.t.t.t.t.k.k.A.Q.Q.I.I.Q.Q.",
"Q.Q.L.Z.s.y.Y y.L r.r.y.u.r.u.r.y.y.y...k l.l.l.l.f j j j j j j j j j j j j j j j j j j j j j j j j j j j j j r 4 5 : 5 : 7 G t.t.t.t.r.k.f.!.I.P.Q.Q.Q.Q.",
"Q.Q.Q.Z.k.y.r.Y r.r.r.y.u.r.u.u.y.Y Y l k l.w.k l q p p p p p p g q g p q p p p p p p p p p p p g q p p p p g 8 3 7 : 5 : 7 G t.t.t.t.p.k.L.I.!.I.Q.Q.Q.Q.",
"Q.Q.I.Z.Z.y.y.r.y.r.r.u.y.r.u.r.Y y.y.l k l.l 3 , o <       o   o o   < <   o o o o o o o   < o <   o o <     o   < < 7 : 7 G t.y.r.y.p.k.L.Q.Q.).Q.Q.I.I.",
"!.Q.L.Z.A.a.y.r.y.y.u.r.u.y.r.u.y.y.Y s l 0 < X = * * * * * * * * & & * * * * * * & * * * & & * & & * * * * & & & . > > < 6 G t.t.r.y.k.k.k.Q.Q.).Q.!.Q.I.",
").Q.P.Z.A.a.y.y.r.y.y.y.r.u.r.r.Y y.Y # > X % = ; ; D N N N N N N N N N N N M M N N N N N N N N N N M M N N N N N N O . >   G t.Y Y t.f.k.k.Q.Q.Q.Q.).Q.I.",
"`.Q.Q.Z.k.y.r.y.y.r.r.y.u.r.u.y.y.y.y.% O ; * { &.&.@.*.*.*.*.*.*.*.*.*.*.*.*.*.*.#.*.*.*.*.*.*.*.*.*.*.*.*.*.*.*.#.% N @ . G K Y Y r.p.k.L.Q.Q.Q.).).Q.P.",
"Q.Q.L.k.k.t.t.t.t.t.t.t.t.t.t.t.t.t. .H 2.{.J.H.].].].].B V V C V c z V V V V z T.F C V V V c + V V V V z J.].].].].n.]._ * J y.r.y.y.p.A.k.Q.Q.Q.Q.Q.Q.Q.",
"P.Q.Z.A.a.t.t.t.t.t.t.y.t.t.t.t.t.t.t.{ 2.{.T.n.H.H.J.H.P ~ ~ ~ ~ I c ~ ~ ~ ~ I M.P ~ ~ ~ ~ U c ~ ~ ~ ~ I M.J.H.H.H.n.]._ * J t.y.y.r.u.k.k.A.P.Q.I.I.Q.`.",
"P.!.Z.A.p.t.t.t.Y t.t.t.t.t.t.t.t.t.t.{ 2.{.T.H.].].].].$.B.N.N.N.W Z N.N.N.N.E T.$.N.N.N.N.W V N.N.N.N.W T.].].].].m.]._ * | y.y.r.y.r.d.A.L.Q.Q.Q.I.Q.Q.",
"Q.Q.L.k.k.t.Y t.K Y Y t.y.t.y.y.t.t.t.{ 2.{.T.M.J.J.H.J.+.Y.Y.Y.Y.;.F Y.Y.Y.Y.;.M.+.Y.Y.Y.Y.x.B Y.Y.Y.Y.;.M.H.H.J.J.n.]._ & J t.y.r.y.i.k.k.I.Q.L.Q.Q.Q.Q.",
"Q.Q.Q.Z.k.t.t.Y y.Y y.t.t.t.t.t.t.t.t.{ 2.{.T.J.].].].].' ) ) ) ) / N ) ) ) ) / T.] ) ) ) ) / N ) ) ) ) / T.].].].].M.]._ * | y.y.r.y.i.k.L.Q.Q.Q.Q.Q.Q.Q.",
"Q.Q.P.Z.Z.i.t.t.t.t.t.t.=.{ S G t.t. .H 2.{.T.b.H.H.H.H.W.'.W.W.W.W.W.W.W.W.W.W.H.R.W.W.W.W.W.W.W.W.W.W.W.H.H.H.H.H.n.]._ * J y.r.y.y.s.Z.A.Q.Q.}.Q.Q.Q.P.",
").~.L.k.A.a.t.t.t.t.t.t.S R. X}.F K t.{ 2.{.T.4.b.b.b.b.b.b.b.b.v.v.v.v.v.v.v.v.v.v.v.v.v.v.v.v.b.b.v.v.v.v.v.v.v.v.n.]._ * J t.r.y.r.k.A.k.Q.Q.I.Q._.Q.I.",
"!.Q.I.Z.Z.i.t.t.t.t.t.K h.}. X|.T.H =.H 2.{.J.:.3.3.3.3.3.3.3.3.3.3.3.3.3.3.3.3.3.3.3.3.3.3.3.3.3.2.3.3.3.3.3.3.3.3.n.]._ * J Y K y.r.s.Z.k.Q.Q.I.I.!.Q.P.",
"_.Q.I.Z.k.t.t.t.t.t.t.S V.}. X|.E.F y.{ 2.[.K.J.].].].n.n m m m m m m m M.].].].].M.n.v.n.n.n.b.v.M.b.b.b.].].].].].n.].` * { Y r.r.r.i.Z.A.Q.Q.Q.Q.).Q.I.",
"Q.Q.F.Z.k.t.t.t.t.t.t.S V.{.}.}.].F r.H 2.[.K.G.'.'.'.c.= v v v v v x = c.'.'.T.'.P R R R R C z R R R U V G.E.E.T.'.n.]._ * { t.y.y.y.p.Z.k.P.Q.Q.Q.Q.Q.!.",
"L.Q.C.A.p.t.t.t.t.t.t.S :.v.6.v.2.F r.H 3.{.K.G.K.K.K.c.1 T Q Q Q Q T q 4.T.T.T.'.P ^ ^ ^ ^ E b ^ ^ ^ ^ U V.T.T.T.T.n.]._ * { t.y.r.y.r.k.Z.A.I.Q.I.I.Q._.",
"Q.Q.L.k.p.t.t.t.Y t.t.S :.' F ' :.n t.{ 2.{.K.J.].].].b.1 z.B.B.B.B.z.a v.].].'.].$.U.U.U.U.! B U.U.U.U.! K.].].].].n.]._ * { t.y.r.y.y.d.k.P.Q.Q.Q.Q.Q.Q.",
"Q.Q.P.Z.k.t.Y Y Y Y Y D W.J.J.J.b.m t.H 2.{.E.M.J.J.J.>.1 P $.$.$.$.P a 4.K.K.K.J.O.7.7.7.7.@.m h.m.7.7.@.M.K.J.K.K.M.]._ * J t.y.y.r.y.A.k.Q.Q.L.Q.Q.Q.Q.",
"Q.Q.Q.Z.k.y.t.t.t.t.t.D [. X X XH.S t.H 2.{.K.J.].].].b.@.[ k k k 0.k g b.].].].].m.5.5.5.5.5.5.5.5.5.5.5.'.].].].].n.]._ * J t.r.y.y.p.Z.L.Q.Q.Q.Q.Q.Q.Q.",
"Q.Q.L.Z.A.p.t.t.t.t.t.S 4.O.O.O.` n t.H #.M.4.3.n.n.b.#.%.A 9 9 9 9 9 6 *.n.n.n.M.M.M.M.M.M.M.M.M.M.M.M.M.n.n.n.b.b.@.b.F * | t.r.y.y.f.A.k.Q.Q.`.Q.Q.Q.P.",
"_.~.L.Z.Z.a.t.t.t.t.t. .- $ F @ - - t.H ` 4.&.#.>.>.3.O.1 3 3 3 2 3 3 1 O.3.>.>.>.>.>.>.3.>.3.>.3.3.3.2.>.>.>.>.>.>.' 3.N * J t.Y y.y.k.Z.k.Q.Q.Q.Q._.Q.Q.",
"!.Q.Q.Z.Z.y.y.y.t.t.t.t.D - * * M D t.J O % $ % % % % @ & * * * * * * = @ % $ $ % % % % % $ $ $ % % % % % % % % % % $ $ @ * | L Y Y Y p.Z.A.Q.Q.Q.Q.^.Q.P.",
"_.Q.Q.A.Z.y.t.y.y.y.t.t.| J | | | t.t. .| { { { -.-.h.h.h.h.h.h.h.h.h.h.h.h.i.=.{ { { r.| | | K { { | | | J | | | J |  .| |  .t.i.Y Y p.Z.L.Q.Q.Q.^.^.Q.Q.",
"Q.Q.Q.P.Z.f.s.A.C.f.s.i.y.s.s.f.Z.A.s.s.F.k.k.f.k.F.Q.Q.P.Q.Q.Q.Q._.Q.Q.Q.Q.L.k.f.f.A.Z.s.s.y.i.s.s.Z.Z.k.s.a.y.p.s.s.Z.Z.d.s.k.A.k.s.Z.Z.Q.Q.P.I.Q.Q.Q._.",
"L.Q.Q.Q.L.A.f.Z.A.Z.Z.Z.A.Z.f.Z.A.Z.k.f.k.A.k.k.L.Q.Q.Q.Q.Q.L.Q.Q.Q.Q.`.Q.Q.Q.L.k.k.A.Z.k.Z.A.A.Z.d.Z.A.Z.Z.Z.Z.Z.Z.f.A.Z.Z.f.k.Z.Z.k.A.I.Q.Q.Q.Q.I.I.Q.Q.",
"Q.Q.Q.Q.Q.Q.Q.A.A.P.L.Z.Z.Z.I.P.A.A.Q.Q.A.A.P.I.Q.Q.Q.Q.Q.P.Q.Q.Q.Q.Q.Q.Q.Q.Q.Q.Q.P.k.F.Q.A.k.k.S.I.L.A.F.L.Z.Z.A.F.Q.A.A.I.I.L.A.L.I.Q.Q.Q.Q.Q.P.Q.Q.Q.Q.",
"Q.Q.Q.Q.Q.Q.Q.Q.Q.Q.I.P.I.I.Q.Q.Q.Q.Q.Q.Q.Q.Q.Q.Q.Q.Q.Q.Q.Q.Q.Q.Q.Q./._.Q.Q.Q.~.Q.Q.Q.Q.Q.Q.I.I.Q.Q.Q.Q.Q.Q.Q.I.I.Q.Q.Q.Q.Q.Q.Q.Q.Q.Q.Q.Q.Q.Q.Q.I.Q.Q.Q.Q.",
"Q.Q.~.~.Q.Q.I.Q.Q.Q.Q._.Q.Q.Q.I.Q.Q.Q.Q._.Q.Q.Q.Q.Q.Q.Q.Q.~.Q.Q.Q.Q.Q.Q.Q.~.Q.Q.~.P.Q.Q.Q.Q.!.Q.Q.Q.I.Q.Q.Q.Q.Q.Q.Q.I.Q.Q.I.Q.(.Q.Q.Q.I.Q.Q.Q.Q.!.Q.Q.Q.I.",
"~.Q.~.~.Q.~.P.Q.I.I.I._.Q.Q.Q.I.Q.L.Q.Q.).Q.Q.Q.P.Q.L.Q.Q.~.Q.~.P.Q.P.P.Q.).Q.~.~.L.Q.L.Q.Q.).Q.(.Q.I.Q.L.Q.(.~.Q.~.I.I.I.I.Q.(.Q.Q.Q.I.I.P.Q.Q._.I.!.Q.I.",
"/./.Q.Q.Q._.Q.I.I.Q.Q.Q.Q._.~.Q.Q.Q.Q.Q.Q.Q._.Q.Q.Q.Q.Q.Q.Q.I._.Q.Q.Q.Q.Q.Q.Q././.I.Q.Q.Q.Q.Q.Q._.Q.Q.Q.Q.Q.Q.Q.Q.(.Q.Q.Q.Q.Q.Q.Q._.!.Q.Q.Q.Q.Q.Q.Q._.Q.I.",
"_.Q.Q.Q._.Q.Q.P.Q.Q.Q.Q.Q._.Q.I.P.Q.Q.Q.Q._.).Q.L.Q.Q.Q.Q.Q.`.Q.Q.L.Q.Q.Q.Q.Q.`.Q.P.P.Q.Q.Q.Q._.).I.P.Q.Q.Q.Q.Q.}.!.I.P.Q.Q.Q.Q.Q._.Q.I.P.Q.Q.Q.Q.).).Q.P.",
"!.Q.I.Q./.I.Q.Q.Q.Q.Q.Q.Q.I.Q.Q.I.Q.Q.Q.Q.Q.Q.Q.Q.Q.Q.Q.Q.Q.~.Q.Q.~.Q.Q.Q.Q.~.Q.Q.Q.Q.Q.Q.Q.Q.Q.I.Q.!.Q.Q.Q.Q.Q.I.I.Q.!.Q.Q.Q.Q.Q./.Q.I.Q.Q.Q.Q.Q.Q.Q.Q.I.",
"P.Q.P.Q.P.Q.Q.`.Q.Q.I.P.Q.I.Q./._.Q.Q.P.Q.I.I.Q.`.Q.Q.Q.P.Q.P.Q.Q._.Q.Q.Q.P.Q.P.I.)._.Q.Q.P.Q.I.I.Q._.Q.Q.Q.P.Q.P.I.Q._.Q.I.I.I.Q.P.Q./.).Q.Q.P.I.I.I.!._.",
"I.Q.Q.Q.I.Q.Q.Q.I.`.I.I.Q.I.Q.Q.Q.!._.Q.Q.I.Q.Q.Q.Q._./.Q.Q.P.Q.Q.Q.~._.Q.Q.Q.P.Q.Q.Q.~._.Q.Q.Q.Q.Q.Q.Q._.!.!.Q.I.Q.Q.I.Q._.!.Q.Q.I.Q.Q.Q.!._.Q.Q.I.Q.Q.Q.",
"Q.Q.P.I.Q.Q.Q.Q./.Q./.P.Q.Q.Q.Q.Q./.Q.Q.L.Q.Q.Q.Q.Q./.I.P.P.Q.Q.Q.Q.!.~.Q.L.Q.Q.Q.Q.Q.~.Q.I.P.Q.Q.Q.Q.Q.!.Q.P.P.Q.Q.Q.!.~.~.I.P.Q.Q.Q.Q.Q.!.!.Q.P.I.Q.Q.Q.",
"Q.Q.Q.Q.Q.Q.I.!./.!.I.I.Q.Q.Q.Q.Q._.Q.Q.Q.Q.Q.Q.Q.Q._.Q.I.Q.Q.Q.Q.Q._.~.Q.Q.Q.Q.Q.Q.Q._.Q.Q.!.Q.Q.Q.Q.Q.).Q.I.!.Q.Q.!.I.~.(.I.~.Q.Q.Q.Q.Q._.Q.Q.Q.Q.Q.Q.Q.",
"Q.I./._.Q.Q.P.I.Q.Q.I.}.Q.Q.Q.L.Q.Q.Q.Q._.Q.Q.Q.P.Q.Q.Q.)._.Q.Q.P.Q.Q.Q.Q._.Q.Q.Q.P.Q.Q.Q.Q._.Q.Q.I.P.Q.Q.Q._.(.Q.Q.P.I.I.!.I.`.Q.Q.Q.P.Q.I.Q.!._.Q.Q.Q.P."
};
