/* XPM */
static char *ab1ebc0a3e934e27b7a221a896d7c7c157aVbs1wMW1czPQB[] = {
/* columns rows colors chars-per-pixel */
"64 64 255 2 ",
"   c #08301D",
".  c #081823",
"X  c #0A1A2A",
"o  c #081426",
"O  c #0F1E35",
"+  c #073A26",
"@  c #0F2134",
"#  c #12312E",
"$  c #273E2C",
"%  c #20381D",
"&  c #164636",
"*  c #0A4A34",
"=  c #33472F",
"-  c #56663C",
";  c #143151",
":  c #0F3E74",
">  c #103F72",
",  c #153E6C",
"<  c #145642",
"1  c #274A44",
"2  c #27564A",
"3  c #365959",
"4  c #2F4F4E",
"5  c #0F724D",
"6  c #376459",
"7  c #286952",
"8  c #10456F",
"9  c #0F4274",
"0  c #0F467B",
"q  c #104271",
"w  c #154978",
"e  c #134B6F",
"r  c #2D4C72",
"t  c #387069",
"y  c #4A5A48",
"u  c #4F6454",
"i  c #4A5D66",
"p  c #4B656B",
"a  c #556B75",
"s  c #58747A",
"d  c #4C7072",
"f  c #65777D",
"g  c #656E7A",
"h  c #6A7353",
"j  c #A2797C",
"k  c #338A6B",
"l  c #198E61",
"z  c #508A79",
"x  c #6F935C",
"c  c #97A754",
"v  c #9DA06C",
"b  c #B8C47A",
"n  c #15539B",
"m  c #12589C",
"M  c #144B90",
"N  c #264E8D",
"B  c #244B85",
"V  c #2A558A",
"C  c #365C89",
"Z  c #265194",
"A  c #275B97",
"S  c #275B9C",
"D  c #255299",
"F  c #2A5192",
"G  c #3D618A",
"H  c #1455A2",
"J  c #155CA4",
"K  c #1558AA",
"L  c #135AB5",
"P  c #145CBC",
"I  c #165AB7",
"U  c #0F57B0",
"Y  c #255AA3",
"T  c #1863BC",
"R  c #1561A7",
"E  c #2762A3",
"W  c #2B65B0",
"Q  c #48678C",
"!  c #5B7884",
"~  c #587699",
"^  c #4F6990",
"/  c #657C87",
"(  c #677997",
")  c #4971A7",
"_  c #4E76AE",
"`  c #435E89",
"'  c #165EC1",
"]  c #1662C4",
"[  c #1A63C4",
"{  c #1764CC",
"}  c #1C71CF",
"|  c #1B6FDA",
" . c #1868D3",
".. c #1C73D2",
"X. c #1B72DB",
"o. c #1C7ADD",
"O. c #1C7AD7",
"+. c #217DD9",
"@. c #2D71D2",
"#. c #3575D4",
"$. c #2C70CD",
"%. c #1B79E4",
"&. c #487DD0",
"*. c #867890",
"=. c #5A8F84",
"-. c #69848B",
";. c #6A8796",
":. c #758B95",
">. c #7A949A",
",. c #718D8C",
"<. c #68AB94",
"1. c #5A84BB",
"2. c #6989A7",
"3. c #7B99A7",
"4. c #678BB8",
"5. c #7295B0",
"6. c #7AAAAB",
"7. c #51B590",
"8. c #77CAAD",
"9. c #1E85D9",
"0. c #2183DA",
"q. c #2289D9",
"w. c #2597DD",
"e. c #3E81DE",
"r. c #1C83E2",
"t. c #258EE7",
"y. c #31A8D9",
"u. c #5888CF",
"i. c #789BC7",
"p. c #6B93D4",
"a. c #7BA5CC",
"s. c #7DA4D3",
"d. c #4A86E3",
"f. c #558CE4",
"g. c #588DE2",
"h. c #5A95EC",
"j. c #5892E9",
"k. c #76AEE1",
"l. c #7CBCF7",
"z. c #71ADE2",
"x. c #7DC1F8",
"c. c #2281B7",
"v. c #84959B",
"b. c #889193",
"n. c #95A791",
"m. c #859CA6",
"M. c #8E9CAB",
"N. c #8BA4AC",
"B. c #88A6AA",
"V. c #99A5AA",
"C. c #89A7B6",
"Z. c #96ACB6",
"A. c #99B6BB",
"S. c #91B5B1",
"D. c #A2ADB2",
"F. c #A6B4BA",
"G. c #B0B6B3",
"H. c #AC9A96",
"J. c #C4B784",
"K. c #EBA9AA",
"L. c #D8A59E",
"P. c #B3C88F",
"I. c #8CC9B5",
"U. c #B5CEB3",
"Y. c #D5D5AD",
"T. c #DFDBA2",
"R. c #86A6C8",
"E. c #92ADC7",
"W. c #9AB6C4",
"Q. c #86A9D5",
"!. c #8BB3D8",
"~. c #96B7D8",
"^. c #86B0C9",
"/. c #A6BBC7",
"(. c #AFBCCA",
"). c #88B9E3",
"_. c #97BAE3",
"`. c #85B7ED",
"'. c #A1BEE4",
"]. c #94CDCA",
"[. c #A9C3C9",
"{. c #B9C6C9",
"}. c #ABC6D4",
"|. c #B5CCD7",
" X c #B9D3DB",
".X c #B1D3CC",
"XX c #B2E2D7",
"oX c #99C6E6",
"OX c #85C3F8",
"+X c #8AC5F8",
"@X c #8CC9F8",
"#X c #87C7F6",
"$X c #93CCF8",
"%X c #9ACEF8",
"&X c #98CBF4",
"*X c #8FD0F8",
"=X c #94D0F8",
"-X c #9CD2F8",
";X c #9BD2F5",
":X c #99CCE6",
">X c #A6C9E5",
",X c #B5CDE5",
"<X c #B9D6EA",
"1X c #A1CDF5",
"2X c #A3D3F5",
"3X c #A3D4F8",
"4X c #A9D7F8",
"5X c #A4D9F8",
"6X c #ACDAF8",
"7X c #AAD8F5",
"8X c #BEDAF2",
"9X c #B2DDF8",
"0X c #B7D9F4",
"qX c #AAD8EC",
"wX c #B4E1F8",
"eX c #BAE3F8",
"rX c #BBE3F4",
"tX c #AEE2F5",
"yX c #C8D5D8",
"uX c #D5DBDC",
"iX c #C7CCCF",
"pX c #C7E4DA",
"aX c #C3DBE4",
"sX c #C8DBE7",
"dX c #D4DDE3",
"fX c #C3DCF3",
"gX c #C8D7F0",
"hX c #CBE4E9",
"jX c #DDE3E4",
"kX c #D3E6EB",
"lX c #D9E8EA",
"zX c #CCEBF8",
"xX c #C9E7F6",
"cX c #DCECF2",
"vX c #D4EBF5",
"bX c #DEF3F5",
"nX c #D9F2F7",
"mX c #DCF2ED",
"MX c #E3EBEC",
"NX c #E6E8EA",
"BX c #E4EDF2",
"VX c #E9EEF2",
"CX c #E3F3F5",
"ZX c #ECF3F4",
"AX c #E4F5F8",
"SX c #ECF5F8",
"DX c #EDF8F8",
"FX c #E6F8F8",
"GX c #F4F5F5",
"HX c #F4F7F8",
"JX c #F5F8F8",
"KX c #F8F8F8",
"LX c #F7F8F7",
"PX c #E8F1EF",
"IX c #EBEDD7",
/* pixels */
"N Z E E R W W W E E E E E E E E Y S S S S S S S S S S S S S S S S S A A S S A A A A A D A A A A A A A A A A A A A S R J S B r w ",
"V W q.9.%.9.r.r.9.9.9.9.q.9.9.9.q.q.q.0.0.0.0.0.0.0.0.0.0.0.0.0.0.0.0.0.0.0.+.+.+.+.+.+.+.0.+.0.9.0.9.9.9.9.9.9.O.9.O.X.| T B r ",
"Y +.0.R H H K J R R R R R R R R J J R J J J J J R J J J J J J J m J H J K J H n J J J n n m m m m m m m m m m n n M M M L  .0 , ",
"Y +.R n M n H K J J K J J R J m J J J m H H J H H n H n H n n n n n n n n n n n n n n n n n n M n n n n n n n M M M M M { %.: ; ",
"Y | U U B Q Q Q Q Q ^ Q Q Q Q Q Q Q Q ^ Q Q G Q Q G G C A C C C G G Q ^ Q C G G G C C V C V C C C G C G Q Q G C G C C H %.%.M ; ",
"Y | U ' Q ~.oX}.:X:X>X>X>X:XoX}.>X>X>X,X}.oXoX)._.).k.k.z.z.k.k.z.k.}.>X!.).).!.!.).k.z.z.h.z.k.k.!.)._._.}.oX_.!.k.p.#.%.%.: O ",
"Y | I { ) :X7X6X0X9XwXeXwXwXeXzXzX0X6XwXtX5X=X$X;XOXOX=X=X$X-X@Xx.*X6X9X1X%X6X=X@X#Xx.l.l.l.x.$X;X$X$X%X3X3X1X3X;X@Xl.#.%.r.9 O ",
"Y | P  .) oX6X9X6X9XwX9XeXeXzXSXZX0X=X5X5X5X$X@X+XOX@X8XwX5X=X+X#X=XeX9X4X%X$X#X#X@Xx.x.l.l.$X4X5X3X%X%X%X$X%X%X%X$XOXd.%.r.9 O ",
"K | P  .) >XeXeX6X9XwXwXeXzXAXLXVX XoX=X5X5X@X@X+Xx.+X4X3X@X+X$X-X3X6XeX6X-X@X+X%X9X$X`.l.+X%X6X9X3X%X%X$X@X$X$X$X$X`.f.%.r.9 O ",
"Y | ] | ) :XzXzX6X4XwXwXeXzXHXKXVX|._.3X-X=X@X#X+XOXOX@X$X+X@X-X-X-X-X3X4X%X%X$X-X6X@Xl.OX@X3XeXeX4X3X$X+XOX`.$X%X=X&Xf.%.%.0 O ",
"D  .]  .) oX9XwX3X;X5X6XxXCXHXJXVX(.~.7X-X$X$X$X@X$X%X-X-X-X5XtX3X%X-X3X3X3X-X3X3X%X+X@X@X@X-XwXeXeX3X$X`.+X=XeXeX5X&Xd.X.r.q O ",
"D  .P  .) k.$X$X@X@X=X4XxXSXJXKXPXA.C.qX5X6X6X;X-XwXwX6X4X6XzXeX-X$X3X9X3X3X3X3XwX-X$X3X=X@X@X%X6X9X3X$X$X-X9XzXxX5X&Xd.X.o.9 O ",
"D  .P { W ).OX#XOX@X$X4XzXHXKXHXlXA.C.0XzXkX XoX5XwXxXeXtX5XeX6X$X@X=X5X6X6X4X$X-X$X@X$X@X+XOX+X-X%X4X4X3X3X6X9X0X1X&Xd.| +.: O ",
"D  .' { ) _.@X#XOX@X$X4XnXKXKXHXmX{./.kXVXhXW.^.3X4XwXwX5X-X-X-X@X@X@X-XeXzX-X+X@X+XOX+X+XOXOXx.OX@X3X4X5X4X4X4X4X4X1Xf.| %.: O ",
"D  .' { ~ ,X7X$X#Xx.@XeXSXKXKXHXSXMXlXBXkX[.6.^.;X-X-X5X-X-X*X@X+XOX@X@X5X6X@X+XOXOXx.OX@X=X+XOX`.oX3X4X3X4X6X6X4X4X&Xd.X.%.: O ",
"D { ' { ~  XhX8X5X=X-XvXHXKXHXSXDXJXZXhXW.3.;.^.;X-X-X-X-X-X=X@X@X*X@X*X=X-X@X+XOX`.OXOX+X-X@X+X&X&X1X1X1X4X4X4X4X4X1Xf.X.%.: O ",
"D { ' { ~ <XCXVXcXxXvXSXLXJXPXFXJXJXbX}.3.-.-.!.;X5X5XtX-X=X@X$X-X3X3X3X3X%X$X@XOX+X+X+X@X@X+X%X&X1X1X1X1X1X3X3X4X4X1Xf. .X.: O ",
"Z { ' { ^ /.kXcXkXhXnXJXLXLXDXDXFXmXnXXXS.;.;.:X-X5X5XtX-X=X=X-X6X6X6X4X5X3X$X+X+X@X+X@X+X+X$X$X%X%X3X3X4X4X1X3X1X4X1Xf.| %.: O ",
"Z { I { V z 6.I.8.].XXFXJXLXmXpXI.].XXmXpXA.5.&X;X-X;X=X-X-X-XtXwXwX6X4X6XeX4X%X@X@X@X+X+X+X$X4X1X%X%X3X9X4X%X3X3X4X1Xd.| %.: O ",
"Z [ P { 0 5 l l 7.8.XXbXbXXXI.7.k z ].mXZXhX}.*X=X=X=X=X*X*X-XwXwX9X6X4XtXzXzXxX5X@X@X@X@X@X$X3X3X%X%X%X3X3X9XfX9X4X1Xf.| %.: O ",
"Z ] P { w 5 5 z U.pXhXPXmX8.k l 5 t I.mXZXlXrX;X=X*X*X*X*X*X-XtX9X6X4X3X3X4XxXvXxX9X9X9X4X$X$X%X3X%X%X$X%X9XvXAXnX9X1Xd.| X.: O ",
"Z ] P { 0 5 z I.yX{.[.[.].<.7.5 * 7 <..XyXhXbXzX<X;X*X=X*X*X=X-X4X4X6X-X%X1XvXAXAXvXvXgXvXvX0X3X3X%X-X-X%X9XAXHXnXfX>Xg.| %.: O ",
"Z ] P { 0 * d B.S.-.a / ,.:.,.z l 5 t =.6.[.yXyX/.!.$X=X-X=X-X=X-X-X-X-X0XvXZXKXGXuX~./.dXVX,X).`.;X;X-X%X6XvXnXzXeX4Xg.| %.: O ",
"A [ T { B t 6 z s 6 & 4 p s / -.t k <.S.S.A.C.>.:.^.;X-X5X-X*X*X$X-X-X9XBXHXKXKXNXD.` ^ (.lXE._ i.@X@X$X$X%XxXnXnXxX4Xg.| %.: O ",
"Z [ L { ^ N.s 7 u 1 + + 1 3 a / ,.I.uXjXlX Xm.s :.:X4X5X5X-X=X-X-X6X6XnXHXLXLXKXVX(.g p F.jX(.( 2._.@X#X@X=XxXFXSXxX%Xd.| %.> O ",
"Z [ L { ( iXS.u * *   * + & 3 >.iXmXGXLXLXlXA.3.5.~.;X;X-X-X-X-X5XeXxXZXHXSXSXLXGXNXiXG.(.yX(.E.W.].#X#X@X=XwXnXzX6X+Xd.| o.: O ",
"Z ] P { ( yX[.s &   + + * = f {.PXLXLXLXZX XE.3.3.3.^.;X5X5X5X7X6X9XzXCXFXAXFXVXlXCXMX XR.4.( 5.Z.E.oX#X@X=X6XtX5X=X@Xe.| o.: O ",
"Z ] L { ^ G.[.S.d *   + 1 z (.NXPXGXLXLXMXI.=.=.=.! 5.:X6X6X5X6X9X9XaXvXvXkXkXkXlXbXcX[.^ ; ; i ;.m.a.@X*X-XrX9X=X@X#Xd.| %.: O ",
"N [ I { ^ [.pXdXI.h 1 1 d m.uXVXZXLXDXhXXX8.k < 2 d 6.*X5XtX6X6X0XqX}.<XaX X<XyXyX X XW./ i i p s / a.#X'.1XgXXX:X;X_.d.| %.: O ",
"N [ I { ^ }.CXDXkXN.! ! s 3.yXPXZXGXbXI.7.7.k < 6 2.:X5X5X5X7X6X6X>XZ.(.|./.[.W.C.N.N.B.:./ / / s ! a.:X,XiXiXuXU.}.oXg.| o.: O ",
"N [ I ] C S.hXmXcXyX/.B.s s >.I..XyX.X=.l l l t 6.:X=X5X;X5X5X;X&X~.m.N.A.A.A.W.W.Z.m.;.-.! s s p ! a.:XG.L.T.T.T.P./.d.| %.: O ",
"N ' I ] w d B..XMXVXlX{.>.6 < 7 z <.z 2 * * < <.5XtX5X5X5X;X;X)._._.m./ m.m.B.C.C.m.>.:./ ! a i i ~ !._.H.L.K.T.T.b P.u.| %.0 O ",
"N [ I ] w 3 ,.G.ZXKXGXMX{.:.2 + * & # #   + 2 5.:XtX6X9X4X&X`.Q.oX<XE./ / / b.M.V.V.D.D.V.V.b.g p 2.Q.~.G.K.K.K.K.J.H.&.| %.: O ",
"N ' L ' ` B..XNXGXJXSXCXsXA.s 1 + + # # # # 1 s C.7XwXfX1X`.Q._.0X8X>Xm.( D.iXiXjXjXNXjXjXjXuX(.D.Q.s.~.Y.T.Y.K.L.v b.&.| %.: O ",
"N [ L ' ( uXGXGXKXGXlXhX}.C.-.p 3 i a a a 4 # & s ^.1X0X_.`._.1XfXvXvXaXiXNXPXLXLXLXLXLXLXLXLXPXNXgX<X}.n.v b H.j *.p.#.| o.: X ",
"N [ L ' ( yXZXLXKXCXaX/.m.:.f s >.:.6.3.;.a #   & ! !.'._.Q.'.1XzXFXHXHXGXLXLXLXKXKXKXKXLXLXLXLXLXGXbX<Xb.u v v ( ( p.#.| %.: X ",
"N [ I { Q Z.dXZXLXZX XB./ i i / C.C.R.C.3.-.4 @ # t s._._._._.'.xXZXKXKXLXKXKXKXKXKXKXKXKXKXKXKXLXLXDXMXG.M.3.3.4.u.g.#.| o.> O ",
"N ' L [ B -.[.pXpX.XS.s 2 $ 1 g 6.6.3.3.6.>.d d ;.2.p.Q.'.Q.Q._.gXGXKXKXKXKXKXKXKXKXKXKXKXKXKXJXLXLXZXBXlX|.!.s.4._ &.@.| %.: X ",
"N ' U { r d x <.<.z 7 * + # = 4 s =.z t s d ^ R._._._.!.!.Q.Q.'.cXHXKXKXKXKXKXKXKXKXKXKXKXKXLXJXLXZXhXsXcX X~.s.1._ _ @.| o.: @ ",
"N P I ' w & l l 5 * * + % $ 1 & & 2 5 < & 4 ,.(.gXfX,X_.'._._.<XVXLXKXKXKXKXKXKXKXKXKXKXKXKXLXJXSXCXyX}.hXkX/.i.1._ _ @.| o., @ ",
"N I I ' > & & < & ; 4 $ = = $ # # 3 2 < 3 b.{.PXVXBXgX<X1X,X,XgXHXLXKXKXJXJXKXJXJXKXKXKXLXLXDXDXFXbXsX|.hXlXaXi._ _ _ @.X.o.: O ",
"N T I [ , r Q ~ ~ ( ( y = % #   3 4.~ a m.uXPXLXGXGXMX|.'.'.'.sXSXLXLXLXJXJXDXJXDXDXJXJXJXJXDXDXJXGXCXkXlXCXkXE._ _ W $.X.o.: X ",
"N I K I F 2.i.s.!._.C.u = = 4 3 ~ s.a.E.uXlXuXlXMXsX|./.C.~.'.aXcXZXHXHXJXFXDXFXFXFXFXJXLXJXFXFXFXSXCXcXvXhXyXC._ _ W $.| X.: O ",
"N T I ' ^ Q._.!.).!.5.u = h :.2.i.i.R.'.NXdXN.{.,Xm.Z.W.m.!.'.,XsXxXcXHXJXKXKXJXJXJXJXJXJXFXbXnXvXvXxXhX X.X/.C.( _ u.#.| +.: X ",
"N P U ' ` Q.Q.Q.s.p.( = = f ~.R.Q.i.R.'.hXkXZ./.(.m.C.m.( R.~.|.sXkXcXZXGXJXLXKXJXJXJXJXDXFXnXzXzXzXzXhXaX X/.3.~ 1.1.@.| X.: O ",
"F [ I ' C i.R.Q.Q.R.-.y = b.~.!.Q.Q.R.R./.|.W.5.2.m.3.! ! 4.R.W.|.sXhXhXlXBXJXJXKXJXJXJXDXSXnXnXnXnXhXxXhX|.Z./ ~ 4.1.$.| %., @ ",
"N [ I I F _ p.Q.!.!.n.- - :.'.'.!.R.5.5.3.v.:.Q i g a i ^ 4.5.C.N.W././.[.<XlXSXDXGXGXDXDXFXnXnXhX<X X<X XA.-.a ( p.u.$.| %.: O ",
"F [ I [ ` i.Q.R.~./.n.h - :.'.'.'.E.E.E.Z.D.V.M.:.b./ / 4.4.5.2.v./.|.yXyXhXhXhXhXhXdXlXvXkXhX<X.X[.}..X}.>.a ! 2.4.4.#.| +.0 X ",
"F [ L P ^ }.|.,XgXiXb c - x E./.W.Z./.uXdXNXNXuXiXiX{.(.C.2.( ( >.A. XuXlXkXhX<X|..X}.}.}.[.W.W.W.A.W.}.Z./ a / 5.4._ #.| %.w O ",
"N { K ' ( dXGXVXNXY.b c h h f g f / D.NXGXGXGXGXGXVXVXNX(.:.:.M.:.>.>.M.Z./. X<X8X<X.XF.m.>.3.m.B.B.m.3.,.a a f M.E.4.#.| +.q O ",
"F [ U P ( NXNXyXG.n.c c h u a a s b.iXZXKXKXKXKXLXJXSXBX{.v.D.iXV./ -./ / -.m.A.}. X}.W.B.>.>.:.:./ ! s a i i / /.(.(.d.X.o.0 O ",
"F { K P ( jXjXiXG.b c c c h / -.v.G.PXLXKXKXKXKXJXJXFXnX|.M.G.jXiXb.>.3.>.,./ -.>.B.C.Z.C.N.3.:./ s a a a i i f v.(.dXp.X.+.> @ ",
"D  .U I ( NXVXNXIXIXY.Y.Y.G.G.U.{.lXGXLXKXKXJXLXJXDXnXvX[.>.D.uXiXV.N.v.N.M.:./ s / ;.3.m.N.N.N.m.>.v.v.b.M.H.D.(.dXBXp.X.o.0 O ",
"F  .U P ( jXHXGXGXGXPXGXPXGXGXVXPXlXPXGXKXJXJXLXGXbXaX|.Z.:.,.m.(.uXiX{.G.G.D.V.V.V.V.D.F.{.{.iXyXiXyXyXuXjXNXVXGXKXBXp.%.o.9 @ ",
"Z  .K I ( jXKXKXGXGXLXLXKXKXGXGXBXcXbXLXKXJXJXDXBXhX[.Z.N.:./ D.uXPXGXGXVXVXNXNXMXNXNXPXVXVXGXHXGXGXGXGXGXGXKXKXKXKXBXp.%.9.0 @ ",
"D  .K I ( NXGXGXDXGXHXLXLXKXKXGXGXMXcXDXHXSXZXcX X}.W.B.N.b.G.jXGXLXLXLXKXKXLXLXLXLXKXKXLXLXHXKXKXKXGXKXKXKXGXKXKXKXBXp.%.r.w O ",
"D  .U P ( jXFXFXDXDXDXGXLXLXLXLXGXdXyXkXcXcXhX|.|.|./.(.{.yXMXHXLXGXHXHXHXLXHXHXLXHXHXHXSXDXSXDXDXDXDXDXDXDXDXDXVXHXlXp.| %.M O ",
"D  .H L ( hXAXbXFXPXFXAXFXSXSXHXSXcX XaXvXvXhXsXkXkXkXcXMXBXCXnXCXCXCXBXAXAXAXCXCXCXbXbXbXbXbXbXbXbXbXbXAXbXbXbXAXBXvXp.%.%.9 O ",
"Z  .n U ~ |.aXfXhXfXfXxXfXzXxXxXzXzX8X8XfXfX8X8XfXfX8X8X<X<X<X<X<X<X0X8X<XfX8XfXfX8X8X8X8X8X8X8XrXfX8XsXfXfXfXxXfXfX8Xg.%.r.M O ",
"D  .n T $.d.g.j.j.j.j.h.h.h.h.h.h.h.h.h.h.h.h.h.j.j.j.j.j.j.j.f.j.f.j.j.j.j.f.f.f.f.f.f.j.j.j.f.f.j.g.j.g.g.j.g.j.g.f.t.t.t.w O ",
"Z } T O.r.w.9.o.O.......+.@.......} ................ .................} ..} } } } } } } ..............O.....O.O.o.r.r.t.t.w.w @ ",
"B T 9.9.w.w.w.w.q.q.q.9.+.0.o.9.9.O.O.O.9.o.o.O.o.O.O.O...X.X.o.+.+.O.+.o.+.+.+.O.9.0.0.o.0.0.0.0.0.0.0.9.9.q.q.w.w.w.w.y.c.8 @ ",
"r w w e e e e e e 8 8 , 8 8 9 q > > > , > > 9 q > 9 : : > > : q > > q > q q > q 9 q 8 9 q q 9 9 q q q q 9 9 8 8 9 e w e e ; @ X ",
"r , ; o o o . . . o . . . . . . . . . . . . o o o o X o X X o o X o o X o o X o o X o o X o X o X o o o o o o X o o X O X . # X "
};
