/* XPM */
static char *e5cae6600ed94b179c662338a41d1357l92s0Uf7PVfROgLP[] = {
/* columns rows colors chars-per-pixel */
"64 64 199 2 ",
"   c #C04000",
".  c #C04808",
"X  c #B03000",
"o  c #A01800",
"O  c #980000",
"+  c #700800",
"@  c #881800",
"#  c #B82800",
"$  c #981800",
"%  c #800800",
"&  c #A02800",
"*  c #C83800",
"=  c #C86800",
"-  c #C05000",
";  c #C02800",
":  c #C03800",
">  c #480000",
",  c #680000",
"<  c #602000",
"1  c #802800",
"2  c #481000",
"3  c #601000",
"4  c #701000",
"5  c #580800",
"6  c #682000",
"7  c #D07000",
"8  c #A84800",
"9  c #681000",
"0  c #883000",
"q  c #784000",
"w  c #986800",
"e  c #C09800",
"r  c #C0A800",
"t  c #F8E808",
"y  c #882000",
"u  c #780000",
"i  c #903800",
"p  c #882800",
"a  c #703000",
"s  c #581800",
"d  c #B89840",
"f  c #F8E870",
"g  c #F8F8C0",
"h  c #E8E078",
"j  c #D0C000",
"k  c #780800",
"l  c #906028",
"z  c #907000",
"x  c #802000",
"c  c #481800",
"v  c #A88818",
"b  c #E8D030",
"n  c #F8F870",
"m  c #F8F8F0",
"M  c #F8F858",
"N  c #380000",
"B  c #F0E858",
"V  c #F8F898",
"C  c #B09830",
"Z  c #983800",
"A  c #702800",
"S  c #805810",
"D  c #F8F810",
"F  c #F8F860",
"G  c #583800",
"H  c #200800",
"J  c #706000",
"K  c #A09018",
"L  c #C0B828",
"P  c #F8F040",
"I  c #F8F820",
"U  c #F8F010",
"Y  c #F8F000",
"T  c #F8F800",
"R  c #F8F840",
"E  c #F8F8B8",
"W  c #F8F008",
"Q  c #786000",
"!  c #B89800",
"~  c #502800",
"^  c #705000",
"/  c #A07808",
"(  c #B8A028",
")  c #D8B810",
"_  c #E8E020",
"`  c #D0D008",
"'  c #F8F048",
"]  c #F8E830",
"[  c #E8D050",
"{  c #E8D870",
"}  c #906800",
"|  c #F0E868",
" . c #F8F830",
".. c #F8F878",
"X. c #F0E890",
"o. c #585800",
"O. c #989000",
"+. c black",
"@. c #B05020",
"#. c #984010",
"$. c #783808",
"%. c #381800",
"&. c #482800",
"*. c #584000",
"=. c #988000",
"-. c #D8C008",
";. c #F8E000",
":. c #F8E800",
">. c #806800",
",. c #C0B008",
"<. c #A08000",
"1. c #704800",
"2. c #604800",
"3. c #301000",
"4. c #300800",
"5. c #B09800",
"6. c #382800",
"7. c #887000",
"8. c #503000",
"9. c #884010",
"0. c #C83000",
"q. c #C06030",
"w. c #C04818",
"e. c #803020",
"r. c #C04010",
"t. c #B85038",
"y. c #602010",
"u. c #B83000",
"i. c #C86850",
"p. c #C05030",
"a. c #B84840",
"s. c #801818",
"d. c #A89038",
"f. c #785800",
"g. c #806808",
"h. c #A8A018",
"j. c #402000",
"k. c #C8B858",
"l. c #B84018",
"z. c #F0F028",
"x. c #F8F850",
"c. c #B8A030",
"v. c #982828",
"b. c #906818",
"n. c #B84000",
"m. c #D88860",
"M. c #C86838",
"N. c #D07048",
"B. c #881000",
"V. c #784800",
"C. c #888000",
"Z. c #A89800",
"A. c #E8D000",
"S. c #685800",
"D. c #F8F828",
"F. c #D0C018",
"G. c #783000",
"H. c #C0B000",
"J. c #383000",
"K. c #B09000",
"L. c #D8D008",
"P. c #C05820",
"I. c #B87060",
"U. c #801800",
"Y. c #B8A800",
"T. c #584800",
"R. c #886800",
"E. c #E0B0A0",
"W. c #100800",
"Q. c #504800",
"!. c #501800",
"~. c #884828",
"^. c #683018",
"/. c #502808",
"(. c #100000",
"). c #180800",
"_. c #402008",
"`. c #583018",
"'. c #501000",
"]. c #482010",
"[. c #A05038",
"{. c #D8B0A0",
"}. c #703818",
"|. c #A07060",
" X c #805038",
".X c #B06030",
"XX c #C06048",
"oX c #F0D0C0",
"OX c #E0A888",
"+X c #C87050",
"@X c #B84830",
"#X c #B84828",
"$X c #B03018",
"%X c #A03018",
"&X c #B04828",
"*X c #A82000",
"=X c #A82008",
"-X c #A81800",
";X c #A80800",
/* pixels */
"  . . . X o o O + + @ # # @ # # # # # @ @ # # # # # # # # $ % % & & * * # # # @ # # # # # # @ # # $ $ # * * * * = - ; ; :     : ",
"      . - X o O + + @ # # @ # # # # # @ @ # # # @ # # # # $ % % & * * * # # @ @ @ # # # # @ @ # # # $ # * * * * = - ; ; :   : : ",
"    : : - - o O + > > + > > > > > + > > > > + > > > + + % , , , < < < < > > > > > > > > + + > + % , , , < < < * = - ; ;   .   : ",
": : : : - - o O > > + @ + + + + + + + > > + + > + + @ @ $ , , % 1 1 1 1 + > > > > + + + @ + + + % % , % 1 < < 1 =         .     ",
"    : . # # + > > > @ # # @ # # # # # @ @ # # @ @ # # # # @ @ # # # # # # @ @ @ * * * * # @ # # * * & & * * < < + # # # :     : ",
". . . . # # > > > @ @ # # # # # # # @ @ # # # @ @ @ # # # @ @ # # # # # # # @ @ * * * * # @ # # * * & & * * * < > > @ # : . . : ",
"        # + > > @ @ @ @ # @ # # # # @ @ # # # @ @ @ # # # @ @ # # # # # # # @ @ * * * * # @ # # * * & & * * * * + > > @   . .   ",
".   :   + > > @ # # + > > > > > + + > > > > > > > > + + + > > + % , , , + > > > < < < < > > > + 1 < < < < & * * # + > > :     : ",
"* & & 1 > > @ # # @ > > 2 3 3 3 @ 2 2 4 2 2 2 2 2 3 3 3 5 5 5 5 6 6 6 6 4 4 3 2 2 4 4 4 3 2 2 3 3 3 2 2 < < * * 7 8 9 9 1 & * & ",
"* & 1 < + @ @ # @ > > > 2 2 3 3 4 2 2 4 2 3 3 2 2 3 3 3 5 5 5 5 6 6 6 6 4 4 4 2 2 2 4 2 2 2 2 3 4 2 2 2 < < < * 7 7 0 9 < 1 * * ",
"* & < < # # # # > > > > 2 2 2 4 4 2 2 4 2 3 3 2 2 3 4 3 5 5 q w e w 6 6 @ 4 4 2 2 2 2 2 2 2 2 2 3 2 2 2 < < < 1 7 7 0 9 < 1 * * ",
"* & < < # # # > > > > > 2 3 @ @ @ 4 3 @ 4 @ @ 4 @ @ 4 4 5 q r r t t t 6 @ @ @ 4 3 @ @ @ @ @ @ @ @ @ 4 3 < < < < 0 8 0 9 < < * * ",
"# # + > # # > > 2 2 2 2 @ y y @ % u u % @ i i p a 3 3 3 s d d f g g h j 6 6 6 6 y p i i p p @ i @ @ @ 2 3 3 2 2 > > # # < 1 * * ",
"# # > > # + + > 3 3 2 3 p p p y @ k u % @ i p p a 3 3 3 l d f f g g g h 6 6 6 6 @ p i i i p @ i @ @ @ @ 3 3 3 2 > > + # < < * * ",
"# # > > # + + > 3 3 2 @ i p p p @ % k k @ i i @ 3 3 3 a d f f f g g g h t 6 6 6 y p i i p @ @ i @ @ @ @ @ 4 3 2 > > > # < < * * ",
"# # + > # + + > 3 4 4 @ i y y y @ % k k @ i i p 3 3 3 z d f f f g g g g t 6 6 6 p p p i i p p @ 4 @ @ @ @ @ 4 2 > > > # < 1 * * ",
"# # + > @ > + @ x x x i i y y y i p @ @ 4 @ @ @ c c c v b n n n m m m m M M N N 4 4 @ @ i p y y @ i i p 1 1 1 < > > > # > > # # ",
"# # + > @ > > + x x 4 i i p @ @ i i y y @ @ @ 4 c c v b B n n n V m m m M M C N 3 4 @ @ i p p y p i i p 1 1 Z A > > > # > > @ # ",
"# # + > @ > > > 4 4 , x i p @ @ i p y p @ @ @ 3 c S v b n n n n D V m m M M C N 2 4 @ @ i p y @ @ p i p 1 Z Z A > > > # > > @ # ",
"# # + > # + > > 4 , , 4 p p y @ i i y p @ @ @ 2 c v b b n n n n D F m m M M M C 2 3 @ @ p p @ @ @ i i p 1 Z Z A + > > # + + # # ",
"* * 1 < # , % , @ k u u @ @ @ 4 @ @ @ @ G G G H J K L P I I U Y T R E E E E R T c c c c a a 3 3 @ y y y Z Z A A @ 3 2 @ < 1 * * ",
"* * 1 < # , , , @ @ k % @ @ @ @ @ 4 4 @ G G H H J L P P I W Y Y T T n E E E n T S c c c a 3 3 3 @ @ @ y Z Z A < @ 3 2 @ < 1 * * ",
"* * 1 < # $ , , @ @ % @ @ 4 4 4 4 3 3 3 G H H G K L P P I Y Y I T T R E E E n R b c c c a 3 3 3 @ @ @ y Z Z Z A @ 3 2 4 < 1 * * ",
"* * 1 < # $ , , @ @ % @ 2 2 2 2 2 2 2 2 G G Q ! L P P P Y Y Y I T T R n E E E n b b S S z z z z i i i p A Z Z A @ 4 2 3 < 1 * * ",
"# # + > & 1 < < ~ ~ ~ ^ / / ( ( b b b b ) ) _ _ ` D D D Y Y Y Y Y Y Y Y P P P P ' ] ] t ] ] t t [ [ { [ e 6 6 6 @ + > + < 1 * * ",
"# # + > & & 1 < ~ ~ } ! ( | | | B n n n  . . . .D D D D Y Y Y Y Y Y Y Y P P P P ..' t t ' ' ' ..X.E E E t e 6 6 @ + > + < 1 * * ",
"# # > > & * 1 < ~ ~ } ! | | | | n n n n  . . . .D D D D o.Y Y Y Y Y Y O.P P P P ' ..............E E E E t t w 6 + + > @ < 1 * * ",
"# # > > * * * < ~ ~ } ! | | | | n n n n  . . . .D D D O.+.o.Y Y Y Y o.+.J P P P ' ' ' ' ........E E { [ e w 6 6 > + > # < 1 * * ",
"# # > > @.@.#.$.%.%.&.*.^ =.-.-.;.;.;.;.:.Y Y Y ;.;.;.>.+.+.Y Y Y Y +.+.o.Y Y Y Y Y Y Y t t t t U ,.<.1.2.2.3.3.> > > # < < * * ",
"# @ > > @.@.#.$.%.4.&.&.%.%.%.^ 5.;.;.;.:.:.Y Y ;.;.;.6.+.+.Y Y Y Y +.+.+.Y Y Y :.:.:.:.t t t t <.1.1.1.7.2.3.3.> + > # < < * * ",
"# @ > > #.@.@.$.&.4.&.*.^ ^ ^ %.6.>.;.;.;.:.:.Y ;.;.;.6.+.+.Y Y Y Y +.+.+.Y Y Y Y :.:.;.t t e 6 1.1.<.<.7.8.3.3.> + + # < < * * ",
"# @ > > #.@.@.9.&.4.4.&.^ ^ ^ ^ 6.6.>.5.;.;.;.:.;.;.;.6.+.+.Y Y Y Y +.+.+.Y Y Y Y :.:.:.t w 6 w <.<.<.<.8.3.3.3.> + + # < < * * ",
"# @ > > 0.q.w.w.e.4.4.4.&.*.*.*.*.&.4.&.5.;.;.;.;.;.;.6.+.+.Y Y Y Y +.+.+.Y Y Y t t t e ^ ~ ^ ! 7.7.7.2.2 2 2 3 < 1 1 * < < & * ",
"# # > > 0.q.q.q.e.4.4.4.4.&.&.*.*.*.&.%.6.5.;.;.;.;.;.6.+.+.Y Y Y Y +.+.o.Y Y Y t t e 6 ~ } ! ! 7.7.2.3.2 2 3 3 < 1 1 * < < 1 * ",
"# # > > r.q.q.q.t.y.4.4.4.4.%.*.&.*.*.*.6.6.5.;.;.;.;.>.+.o.Y Y Y Y o.+.o.Y Y Y t e 6 6 } ! ! ! 7.2.3.3.4 4 3 3 < 1 1 * < < 1 * ",
"# @ > > r.q.q.q.t.y.y.y.%.4.4.%.&.&.*.*.>.6.>.;.;.;.;.;.+.Y Y Y Y Y Y +.Y Y Y Y t w 6 w ! ! ! ^ 2.3.3.8.@ @ 4 3 < 1 1 * < 1 1 * ",
"# # > > u.i.p.i.a., , s.*.%.4.4.H G Q Q 1.1.U U Y Y Y Y Y Y Y Y Y Y Y Y t t t ' V V d.f.g.h.g.j.2 2 3 @ @ % u u < 1 1 * < 1 & * ",
"# # + > u.i.p.p.a., , s.*.&.4.4.H G G G 1.,.U U Y Y ;.Y Y Y Y Y Y Y Y Y t t t ..V V V k.g.g.j.j.2 3 4 @ @ % k u < < 1 * < 1 * * ",
"# # + > u.i.p.l.a., , , *.*.&.%.H H G Q ,.U U U Y Y Y Y Y Y :.:.:.:.Y Y t t t ' V V V V h.g.j.j.2 4 @ @ @ @ % u < < 1 & < 1 * * ",
"# # + > u.i.p.p.a., , s.*.*.*.&.H H G ! ,.U U U Y Y Y Y Y :.;.;.;.;.:.:.t t t t V V V V z.g.j.j.3 4 @ @ @ @ % k < < < & < 1 * * ",
"* * 1 < u.p.p.p.a., , s.p y y @ 5 5 w r ;.Y :.Y U U U U t t t t ;.;.;.;.U U U U T R R E x.c.s s < 1 Z 1 i i p y < < < * < & * * ",
"* * 1 < u.p.p.p.a., , v.p p y @ 5 q w r Y :.:.:.U U U U t t e 6 6.>.;.;.U U U U T T R E x.x.b.s < 1 Z Z i i p y < < < * < & * * ",
"* * 1 < u.i.i.i.a., s.v.p i p @ 5 w r r ;.:.;.;.U U U U e 6 6 6 6.6.6.5.U U U U T T T R x.x.c.s < 1 Z Z i p p @ < < 1 * < & * * ",
"* * 1 < u.i.i.i.a., s.v.p i p @ q w r r ;.;.;.;.U U ,.1.6 w w e >.>.6.6.1.,.,.U T T T T x.x.x.c.A A Z Z i i p @ < & 1 * < & * * ",
"# # + > n.m.m.M.N.B.B.B.a V.a 3 C.Z.A.A.U U U U ! ^ ~ ^ Q ! ! ! 7.7.7.S.q 5 q r 5.;.;.;.D.D.D.F.G.G.G.G.i y y @ < 1 1 & < & * * ",
"# # + > n.m.m.m.N.B.B.B.3 a a V.C.H.A.A.U U <.1.~ ^ } ! ! ! ! ! S.7.7.7.w w q 5 6.>.;.;.D.D.D.D.w G.G.G.i p y @ < 1 1 * < 1 * * ",
"# # + > n.m.m.m.N.B.B.B.3 a 3 z Z.H.A.A.,.1.1.1.} ! ! ! ! ! ! G J.S.S.7.w w w w 6.6.6.5.D.D.D.D.K.G.G.G.i p y @ < 1 1 * < 1 * * ",
"# # + > n.m.m.m.N.B.B.B.3 3 3 z Z.H.A.C.1.1.<.<.! ! ! ! ! Q G H J.J.S.S.w w w w >.>.6.6.z D.D.D.L.G.G.G.i p y @ < < < & 1 & * * ",
"* * < < n.m.M.P.I.U.U.U.3 3 a z Y.Y.1.1.=.=.Y.Y.7.7.7.7.7.2.3.3.4.4.%.*.T.T.7.7.7.7.7.S.6.>.;.;.t 6 6 6 @ @ 4 3 < 1 & * 1 & & * ",
"* * < < n.m.M.P.I.U.U.U.3 3 a z Y.R.R.=.Y.Y.Y.Y.7.7.2.8.8.3.3.3.4.4.4.%.6.T.T.T.S.7.7.7.>.>.>.;.t w 6 6 @ @ 4 3 < 1 & * < & * * ",
"* & < < n.m.M.M.E.U.U.U.3 3 3 z R.R.=.=.Y.Y.=.=.2.2.8.3.3.3.3.3.4.4.4.4.W.W.6.T.Q.Q.S.7.>.>.>.>.t e 6 6 4 4 4 2 < 1 & * < & * * ",
"* * < < P.m.M.m.E.E.U.U.3 3 a V.1.=.=.=.R.R.R.1.8.3.3.3.3.3.3.3.4.4.4.4.W.W.W.6.J.Q.Q.Q.>.>.5.>.w w 6 6 4 4 3 2 < 1 & * < < & * ",
"* * < < I.I.E.E.E.E.E.U.!.!.!.!.*.*.*.*.~.^./.%.4.4.4.4., , , , , , , , (.(.(.(.).)._.`.*.*.*.*.~._._._.< !.'.'.> + @ # , , # # ",
"* & < 1 I.E.E.E.E.E.E.E.!.!.!.!.%.&.&.&./.%.%.%.4.4.4.4., , , , , , , , ].].(.(.).).).).4.%.&.&.).)._._.2 !.'.'.> > @ # , % $ # ",
"* & < 1 [.U.I.E.E.E.E.E.{.!.!.!.4.4.4.%.%.%.%.%.4.y.y.y.s.s., , , , , s.}.}.].].).).).).4.4.4.4.)._._._.2 2 '.'.> > # # % % # # ",
"* * < < [.U.U.[.E.E.E.E.{.|. X X&.&.*.*.~.~.~.~.t.t.t.t.a.a.a.a.v.v.v.a..X.X.X.X~.`.`._.&.&.%.%.`.~.~.`.!.'.'.'.> + # @ , $ # # ",
": :   : X X O O XXoXoXoXOX+X@X@X#X#X#X#X#X#X#X#XN.N.N.N.q.w.q.q.#X$X$X#Xq.q.q.q.q.w.w.w.9.9.$.$.%X&XN.N.< < < < & & < < , $ $ # ",
": :   . X O O O *XXXoXoX+X+X@X@X#X#X$X#X#X#X#X#X&X&XN.N.q.w.q.q.#X$X=X#Xw.q.q.q.q.q.q.q.#.#.#.$.%X&XN.N.* < < * & < < < # $ $ # ",
": : . . - o O O *X*XXXXX@X@X@X@X#X#X$X$X$X#X#X#X%X%X&XN.q.w.q.q.#X$X=X$Xw.q.q.w.q.q.q.w.@.@.#.9.%X&XN.N.* 1 & * < < 1 * # $ # # ",
": :   . - X O O *X*X*X*X@X-X-X-X$X$X;X;X;X=X$X$X%XB.B.&Xr.0.0.r.=X;X;X;X0.r.r.r.0.0.r.r.9.#.9.$.B.%X&X&X* * & < < 1 * * # # # # ",
": : : . - o O o < < < & # # $ $ # # $ $ $ $ # # @ + @ # # # # # # @ @ @ & * * * # # # # * * * 1 < & * * * & 1 < < & * * :     : ",
": :     - o O X & 1 < < , , , , , % , , , , , , + > + + % , , , + > > > < < < < , , , , < < < < < < < < < < < < & * * *   . . : ",
": : : : X o O X * & < < , , , , , , % % , , % % + > + @ % % % , + > > + 1 1 1 1 % , , % < 1 < < < 1 1 1 1 < < & * * * *   .   : ",
": : : : o O O X * * & & # $ $ # # # # # # # # # # @ @ # # # # # # @ # # * * * * # $ # # * * * & & * * * * * 1 1 * * & & : . . : "
};
